<?xml version="1.0" encoding="UTF-8" standalone="no"?>
<!DOCTYPE svg PUBLIC "-//W3C//DTD SVG 1.1//EN"
 "http://www.w3.org/Graphics/SVG/1.1/DTD/svg11.dtd">
<!-- Generated by graphviz version 12.2.1 (20241206.2353)
 -->
<!-- Title: include/AABBtree.hh Pages: 1 -->
<svg width="1328pt" height="193pt"
 viewBox="0.00 0.00 1328.38 193.00" xmlns="http://www.w3.org/2000/svg" xmlns:xlink="http://www.w3.org/1999/xlink">
<g id="graph0" class="graph" transform="scale(1 1) rotate(0) translate(4 189)">
<title>include/AABBtree.hh</title>
<!-- Node1 -->
<g id="Node000001" class="node">
<title>Node1</title>
<g id="a_Node000001"><a xlink:title=" ">
<polygon fill="#999999" stroke="#666666" points="622,-185 515.25,-185 515.25,-165.75 622,-165.75 622,-185"/>
<text text-anchor="middle" x="568.62" y="-171.5" font-family="Helvetica,sans-Serif" font-size="10.00">include/AABBtree.hh</text>
</a>
</g>
</g>
<!-- Node2 -->
<g id="Node000002" class="node">
<title>Node2</title>
<g id="a_Node000002"><a xlink:title=" ">
<polygon fill="#e0e0e0" stroke="#999999" points="39.25,-129.75 0,-129.75 0,-110.5 39.25,-110.5 39.25,-129.75"/>
<text text-anchor="middle" x="19.62" y="-116.25" font-family="Helvetica,sans-Serif" font-size="10.00">limits</text>
</a>
</g>
</g>
<!-- Node1&#45;&gt;Node2 -->
<g id="edge1_Node000001_Node000002" class="edge">
<title>Node1&#45;&gt;Node2</title>
<g id="a_edge1_Node000001_Node000002"><a xlink:title=" ">
<path fill="none" stroke="#63b8ff" d="M514.99,-173.36C422.12,-170.82 225.37,-162.03 50.67,-129.72"/>
<polygon fill="#63b8ff" stroke="#63b8ff" points="51.42,-126.3 40.95,-127.88 50.13,-133.18 51.42,-126.3"/>
</a>
</g>
</g>
<!-- Node3 -->
<g id="Node000003" class="node">
<title>Node3</title>
<g id="a_Node000003"><a xlink:title=" ">
<polygon fill="#e0e0e0" stroke="#999999" points="119.5,-129.75 57.75,-129.75 57.75,-110.5 119.5,-110.5 119.5,-129.75"/>
<text text-anchor="middle" x="88.62" y="-116.25" font-family="Helvetica,sans-Serif" font-size="10.00">type_traits</text>
</a>
</g>
</g>
<!-- Node1&#45;&gt;Node3 -->
<g id="edge2_Node000001_Node000003" class="edge">
<title>Node1&#45;&gt;Node3</title>
<g id="a_edge2_Node000001_Node000003"><a xlink:title=" ">
<path fill="none" stroke="#63b8ff" d="M514.87,-170.86C433.83,-165.14 275.34,-152.3 130.83,-129.92"/>
<polygon fill="#63b8ff" stroke="#63b8ff" points="131.49,-126.48 121.07,-128.39 130.4,-133.4 131.49,-126.48"/>
</a>
</g>
</g>
<!-- Node4 -->
<g id="Node000004" class="node">
<title>Node4</title>
<g id="a_Node000004"><a xlink:title=" ">
<polygon fill="#e0e0e0" stroke="#999999" points="175.5,-129.75 137.75,-129.75 137.75,-110.5 175.5,-110.5 175.5,-129.75"/>
<text text-anchor="middle" x="156.62" y="-116.25" font-family="Helvetica,sans-Serif" font-size="10.00">array</text>
</a>
</g>
</g>
<!-- Node1&#45;&gt;Node4 -->
<g id="edge3_Node000001_Node000004" class="edge">
<title>Node1&#45;&gt;Node4</title>
<g id="a_edge3_Node000001_Node000004"><a xlink:title=" ">
<path fill="none" stroke="#63b8ff" d="M515.02,-171.25C442.52,-166.35 309.15,-154.92 186.83,-129.84"/>
<polygon fill="#63b8ff" stroke="#63b8ff" points="187.77,-126.46 177.26,-127.84 186.34,-133.32 187.77,-126.46"/>
</a>
</g>
</g>
<!-- Node5 -->
<g id="Node000005" class="node">
<title>Node5</title>
<g id="a_Node000005"><a xlink:title=" ">
<polygon fill="#e0e0e0" stroke="#999999" points="236.12,-129.75 193.12,-129.75 193.12,-110.5 236.12,-110.5 236.12,-129.75"/>
<text text-anchor="middle" x="214.62" y="-116.25" font-family="Helvetica,sans-Serif" font-size="10.00">vector</text>
</a>
</g>
</g>
<!-- Node1&#45;&gt;Node5 -->
<g id="edge4_Node000001_Node000005" class="edge">
<title>Node1&#45;&gt;Node5</title>
<g id="a_edge4_Node000001_Node000005"><a xlink:title=" ">
<path fill="none" stroke="#63b8ff" d="M514.81,-169.17C452.72,-162.67 347.4,-150.14 247.73,-129.92"/>
<polygon fill="#63b8ff" stroke="#63b8ff" points="248.53,-126.51 238.03,-127.92 247.12,-133.37 248.53,-126.51"/>
</a>
</g>
</g>
<!-- Node6 -->
<g id="Node000006" class="node">
<title>Node6</title>
<g id="a_Node000006"><a xlink:title=" ">
<polygon fill="#e0e0e0" stroke="#999999" points="296.75,-129.75 254.5,-129.75 254.5,-110.5 296.75,-110.5 296.75,-129.75"/>
<text text-anchor="middle" x="275.62" y="-116.25" font-family="Helvetica,sans-Serif" font-size="10.00">queue</text>
</a>
</g>
</g>
<!-- Node1&#45;&gt;Node6 -->
<g id="edge5_Node000001_Node000006" class="edge">
<title>Node1&#45;&gt;Node6</title>
<g id="a_edge5_Node000001_Node000006"><a xlink:title=" ">
<path fill="none" stroke="#63b8ff" d="M514.89,-167.06C463.89,-159.71 384.91,-147.29 308.01,-130.09"/>
<polygon fill="#63b8ff" stroke="#63b8ff" points="309.18,-126.77 298.66,-127.97 307.63,-133.6 309.18,-126.77"/>
</a>
</g>
</g>
<!-- Node7 -->
<g id="Node000007" class="node">
<title>Node7</title>
<g id="a_Node000007"><a xlink:title=" ">
<polygon fill="#e0e0e0" stroke="#999999" points="344.38,-129.75 314.88,-129.75 314.88,-110.5 344.38,-110.5 344.38,-129.75"/>
<text text-anchor="middle" x="329.62" y="-116.25" font-family="Helvetica,sans-Serif" font-size="10.00">set</text>
</a>
</g>
</g>
<!-- Node1&#45;&gt;Node7 -->
<g id="edge6_Node000001_Node000007" class="edge">
<title>Node1&#45;&gt;Node7</title>
<g id="a_edge6_Node000001_Node000007"><a xlink:title=" ">
<path fill="none" stroke="#63b8ff" d="M515.11,-165.42C473.78,-158.03 415.04,-146.46 355.49,-129.95"/>
<polygon fill="#63b8ff" stroke="#63b8ff" points="356.79,-126.68 346.21,-127.34 354.89,-133.42 356.79,-126.68"/>
</a>
</g>
</g>
<!-- Node8 -->
<g id="Node000008" class="node">
<title>Node8</title>
<g id="a_Node000008"><a xlink:title=" ">
<polygon fill="#e0e0e0" stroke="#999999" points="397,-129.75 362.25,-129.75 362.25,-110.5 397,-110.5 397,-129.75"/>
<text text-anchor="middle" x="379.62" y="-116.25" font-family="Helvetica,sans-Serif" font-size="10.00">map</text>
</a>
</g>
</g>
<!-- Node1&#45;&gt;Node8 -->
<g id="edge7_Node000001_Node000008" class="edge">
<title>Node1&#45;&gt;Node8</title>
<g id="a_edge7_Node000001_Node000008"><a xlink:title=" ">
<path fill="none" stroke="#63b8ff" d="M533.18,-165.25C502.38,-157.2 456.34,-144.85 408.39,-130.48"/>
<polygon fill="#63b8ff" stroke="#63b8ff" points="409.52,-127.17 398.94,-127.63 407.5,-133.87 409.52,-127.17"/>
</a>
</g>
</g>
<!-- Node9 -->
<g id="Node000009" class="node">
<title>Node9</title>
<g id="a_Node000009"><a xlink:title=" ">
<polygon fill="#e0e0e0" stroke="#999999" points="468.38,-129.75 414.88,-129.75 414.88,-110.5 468.38,-110.5 468.38,-129.75"/>
<text text-anchor="middle" x="441.62" y="-116.25" font-family="Helvetica,sans-Serif" font-size="10.00">iostream</text>
</a>
</g>
</g>
<!-- Node1&#45;&gt;Node9 -->
<g id="edge8_Node000001_Node000009" class="edge">
<title>Node1&#45;&gt;Node9</title>
<g id="a_edge8_Node000001_Node000009"><a xlink:title=" ">
<path fill="none" stroke="#63b8ff" d="M547.08,-165.34C527.01,-156.93 496.82,-144.27 473.88,-134.65"/>
<polygon fill="#63b8ff" stroke="#63b8ff" points="475.25,-131.43 464.67,-130.79 472.54,-137.88 475.25,-131.43"/>
</a>
</g>
</g>
<!-- Node10 -->
<g id="Node000010" class="node">
<title>Node10</title>
<g id="a_Node000010"><a xlink:title=" ">
<polygon fill="#e0e0e0" stroke="#999999" points="525.25,-129.75 486,-129.75 486,-110.5 525.25,-110.5 525.25,-129.75"/>
<text text-anchor="middle" x="505.62" y="-116.25" font-family="Helvetica,sans-Serif" font-size="10.00">utility</text>
</a>
</g>
</g>
<!-- Node1&#45;&gt;Node10 -->
<g id="edge9_Node000001_Node000010" class="edge">
<title>Node1&#45;&gt;Node10</title>
<g id="a_edge9_Node000001_Node000010"><a xlink:title=" ">
<path fill="none" stroke="#63b8ff" d="M557.94,-165.34C548.92,-157.72 535.79,-146.62 524.94,-137.45"/>
<polygon fill="#63b8ff" stroke="#63b8ff" points="527.21,-134.78 517.31,-131 522.69,-140.13 527.21,-134.78"/>
</a>
</g>
</g>
<!-- Node11 -->
<g id="Node000011" class="node">
<title>Node11</title>
<g id="a_Node000011"><a xlink:title=" ">
<polygon fill="#e0e0e0" stroke="#999999" points="594.25,-129.75 543,-129.75 543,-110.5 594.25,-110.5 594.25,-129.75"/>
<text text-anchor="middle" x="568.62" y="-116.25" font-family="Helvetica,sans-Serif" font-size="10.00">memory</text>
</a>
</g>
</g>
<!-- Node1&#45;&gt;Node11 -->
<g id="edge10_Node000001_Node000011" class="edge">
<title>Node1&#45;&gt;Node11</title>
<g id="a_edge10_Node000001_Node000011"><a xlink:title=" ">
<path fill="none" stroke="#63b8ff" d="M568.62,-165.58C568.62,-159.07 568.62,-149.92 568.62,-141.62"/>
<polygon fill="#63b8ff" stroke="#63b8ff" points="572.13,-141.62 568.63,-131.62 565.13,-141.62 572.13,-141.62"/>
</a>
</g>
</g>
<!-- Node12 -->
<g id="Node000012" class="node">
<title>Node12</title>
<g id="a_Node000012"><a xlink:title=" ">
<polygon fill="#e0e0e0" stroke="#999999" points="668.5,-129.75 612.75,-129.75 612.75,-110.5 668.5,-110.5 668.5,-129.75"/>
<text text-anchor="middle" x="640.62" y="-116.25" font-family="Helvetica,sans-Serif" font-size="10.00">algorithm</text>
</a>
</g>
</g>
<!-- Node1&#45;&gt;Node12 -->
<g id="edge11_Node000001_Node000012" class="edge">
<title>Node1&#45;&gt;Node12</title>
<g id="a_edge11_Node000001_Node000012"><a xlink:title=" ">
<path fill="none" stroke="#63b8ff" d="M580.84,-165.34C591.45,-157.49 607.06,-145.95 619.67,-136.62"/>
<polygon fill="#63b8ff" stroke="#63b8ff" points="621.42,-139.69 627.37,-130.92 617.25,-134.06 621.42,-139.69"/>
</a>
</g>
</g>
<!-- Node13 -->
<g id="Node000013" class="node">
<title>Node13</title>
<g id="a_Node000013"><a xlink:title=" ">
<polygon fill="#e0e0e0" stroke="#999999" points="736.88,-129.75 686.38,-129.75 686.38,-110.5 736.88,-110.5 736.88,-129.75"/>
<text text-anchor="middle" x="711.62" y="-116.25" font-family="Helvetica,sans-Serif" font-size="10.00">numeric</text>
</a>
</g>
</g>
<!-- Node1&#45;&gt;Node13 -->
<g id="edge12_Node000001_Node000013" class="edge">
<title>Node1&#45;&gt;Node13</title>
<g id="a_edge12_Node000001_Node000013"><a xlink:title=" ">
<path fill="none" stroke="#63b8ff" d="M592.88,-165.34C615.89,-156.77 650.72,-143.81 676.71,-134.13"/>
<polygon fill="#63b8ff" stroke="#63b8ff" points="677.68,-137.5 685.83,-130.73 675.24,-130.94 677.68,-137.5"/>
</a>
</g>
</g>
<!-- Node14 -->
<g id="Node000014" class="node">
<title>Node14</title>
<g id="a_Node000014"><a xlink:title=" ">
<polygon fill="#e0e0e0" stroke="#999999" points="800.62,-129.75 754.62,-129.75 754.62,-110.5 800.62,-110.5 800.62,-129.75"/>
<text text-anchor="middle" x="777.62" y="-116.25" font-family="Helvetica,sans-Serif" font-size="10.00">iterator</text>
</a>
</g>
</g>
<!-- Node1&#45;&gt;Node14 -->
<g id="edge13_Node000001_Node000014" class="edge">
<title>Node1&#45;&gt;Node14</title>
<g id="a_edge13_Node000001_Node000014"><a xlink:title=" ">
<path fill="none" stroke="#63b8ff" d="M605.28,-165.32C638.8,-157 690.03,-144.17 743.21,-130.35"/>
<polygon fill="#63b8ff" stroke="#63b8ff" points="743.96,-133.77 752.75,-127.86 742.19,-127 743.96,-133.77"/>
</a>
</g>
</g>
<!-- Node15 -->
<g id="Node000015" class="node">
<title>Node15</title>
<g id="a_Node000015"><a xlink:title=" ">
<polygon fill="#e0e0e0" stroke="#999999" points="876.62,-129.75 818.62,-129.75 818.62,-110.5 876.62,-110.5 876.62,-129.75"/>
<text text-anchor="middle" x="847.62" y="-116.25" font-family="Helvetica,sans-Serif" font-size="10.00">functional</text>
</a>
</g>
</g>
<!-- Node1&#45;&gt;Node15 -->
<g id="edge14_Node000001_Node000015" class="edge">
<title>Node1&#45;&gt;Node15</title>
<g id="a_edge14_Node000001_Node000015"><a xlink:title=" ">
<path fill="none" stroke="#63b8ff" d="M620.93,-165.31C667.34,-157.13 737.27,-144.47 807,-130.23"/>
<polygon fill="#63b8ff" stroke="#63b8ff" points="807.62,-133.67 816.71,-128.23 806.21,-126.82 807.62,-133.67"/>
</a>
</g>
</g>
<!-- Node16 -->
<g id="Node000016" class="node">
<title>Node16</title>
<g id="a_Node000016"><a xlink:title=" ">
<polygon fill="#e0e0e0" stroke="#999999" points="966.75,-129.75 894.5,-129.75 894.5,-110.5 966.75,-110.5 966.75,-129.75"/>
<text text-anchor="middle" x="930.62" y="-116.25" font-family="Helvetica,sans-Serif" font-size="10.00">Eigen/Dense</text>
</a>
</g>
</g>
<!-- Node1&#45;&gt;Node16 -->
<g id="edge15_Node000001_Node000016" class="edge">
<title>Node1&#45;&gt;Node16</title>
<g id="a_edge15_Node000001_Node000016"><a xlink:title=" ">
<path fill="none" stroke="#63b8ff" d="M622.31,-167.64C683.12,-159.83 785.43,-146.14 883.04,-130.11"/>
<polygon fill="#63b8ff" stroke="#63b8ff" points="883.52,-133.58 892.81,-128.49 882.37,-126.67 883.52,-133.58"/>
</a>
</g>
</g>
<!-- Node17 -->
<g id="Node000017" class="node">
<title>Node17</title>
<g id="a_Node000017"><a xlink:title=" ">
<polygon fill="#e0e0e0" stroke="#999999" points="1070.88,-129.75 984.38,-129.75 984.38,-110.5 1070.88,-110.5 1070.88,-129.75"/>
<text text-anchor="middle" x="1027.62" y="-116.25" font-family="Helvetica,sans-Serif" font-size="10.00">Eigen/Geometry</text>
</a>
</g>
</g>
<!-- Node1&#45;&gt;Node17 -->
<g id="edge16_Node000001_Node000017" class="edge">
<title>Node1&#45;&gt;Node17</title>
<g id="a_edge16_Node000001_Node000017"><a xlink:title=" ">
<path fill="none" stroke="#63b8ff" d="M622.4,-169.43C698.26,-162.25 841.3,-147.94 972.89,-130.06"/>
<polygon fill="#63b8ff" stroke="#63b8ff" points="973.03,-133.58 982.46,-128.75 972.08,-126.64 973.03,-133.58"/>
</a>
</g>
</g>
<!-- Node18 -->
<g id="Node000018" class="node">
<title>Node18</title>
<g id="a_Node000018"><a xlink:href="_box_8hxx.html" target="_top" xlink:title=" ">
<polygon fill="white" stroke="#666666" points="1224.88,-74.5 1126.38,-74.5 1126.38,-55.25 1224.88,-55.25 1224.88,-74.5"/>
<text text-anchor="middle" x="1175.62" y="-61" font-family="Helvetica,sans-Serif" font-size="10.00">AABBtree/Box.hxx</text>
</a>
</g>
</g>
<!-- Node1&#45;&gt;Node18 -->
<g id="edge17_Node000001_Node000018" class="edge">
<title>Node1&#45;&gt;Node18</title>
<g id="a_edge17_Node000001_Node000018"><a xlink:title=" ">
<path fill="none" stroke="#63b8ff" d="M622.11,-174.66C741.61,-174.56 1026.56,-169.96 1112.62,-129.75 1133.95,-119.79 1152.05,-99.33 1163.31,-84.24"/>
<polygon fill="#63b8ff" stroke="#63b8ff" points="1166.16,-86.26 1169.08,-76.08 1160.45,-82.21 1166.16,-86.26"/>
</a>
</g>
</g>
<!-- Node19 -->
<g id="Node000019" class="node">
<title>Node19</title>
<g id="a_Node000019"><a xlink:href="_ray_8hxx.html" target="_top" xlink:title=" ">
<polygon fill="white" stroke="#666666" points="1224.5,-19.25 1126.75,-19.25 1126.75,0 1224.5,0 1224.5,-19.25"/>
<text text-anchor="middle" x="1175.62" y="-5.75" font-family="Helvetica,sans-Serif" font-size="10.00">AABBtree/Ray.hxx</text>
</a>
</g>
</g>
<!-- Node1&#45;&gt;Node19 -->
<g id="edge20_Node000001_Node000019" class="edge">
<title>Node1&#45;&gt;Node19</title>
<g id="a_edge20_Node000001_Node000019"><a xlink:title=" ">
<path fill="none" stroke="#63b8ff" d="M622.27,-172.61C745.73,-168.14 1042.33,-154.89 1079.62,-129.75 1110.45,-108.97 1093.87,-83.84 1117.62,-55.25 1127.05,-43.91 1139.84,-33.69 1151.01,-25.89"/>
<polygon fill="#63b8ff" stroke="#63b8ff" points="1152.66,-29 1159.03,-20.54 1148.77,-23.18 1152.66,-29"/>
</a>
</g>
</g>
<!-- Node20 -->
<g id="Node000020" class="node">
<title>Node20</title>
<g id="a_Node000020"><a xlink:href="_tree_8hxx.html" target="_top" xlink:title=" ">
<polygon fill="white" stroke="#666666" points="1265,-129.75 1164.25,-129.75 1164.25,-110.5 1265,-110.5 1265,-129.75"/>
<text text-anchor="middle" x="1214.62" y="-116.25" font-family="Helvetica,sans-Serif" font-size="10.00">AABBtree/Tree.hxx</text>
</a>
</g>
</g>
<!-- Node1&#45;&gt;Node20 -->
<g id="edge21_Node000001_Node000020" class="edge">
<title>Node1&#45;&gt;Node20</title>
<g id="a_edge21_Node000001_Node000020"><a xlink:title=" ">
<path fill="none" stroke="#63b8ff" d="M622.48,-171.28C725.3,-165.15 956.63,-150.24 1150.62,-129.75 1151.3,-129.68 1151.99,-129.6 1152.67,-129.53"/>
<polygon fill="#63b8ff" stroke="#63b8ff" points="1152.97,-133.02 1162.5,-128.39 1152.16,-126.07 1152.97,-133.02"/>
</a>
</g>
</g>
<!-- Node18&#45;&gt;Node19 -->
<g id="edge18_Node000018_Node000019" class="edge">
<title>Node18&#45;&gt;Node19</title>
<g id="a_edge18_Node000018_Node000019"><a xlink:title=" ">
<path fill="none" stroke="#63b8ff" d="M1170.46,-55.08C1169.05,-48.49 1168.58,-39.21 1169.05,-30.82"/>
<polygon fill="#63b8ff" stroke="#63b8ff" points="1172.5,-31.46 1170.24,-21.11 1165.55,-30.62 1172.5,-31.46"/>
</a>
</g>
</g>
<!-- Node19&#45;&gt;Node18 -->
<g id="edge19_Node000019_Node000018" class="edge">
<title>Node19&#45;&gt;Node18</title>
<g id="a_edge19_Node000019_Node000018"><a xlink:title=" ">
<path fill="none" stroke="#63b8ff" d="M1180.83,-19.61C1182.22,-26.25 1182.67,-35.55 1182.18,-43.92"/>
<polygon fill="#63b8ff" stroke="#63b8ff" points="1178.74,-43.22 1180.98,-53.58 1185.69,-44.09 1178.74,-43.22"/>
</a>
</g>
</g>
<!-- Node20&#45;&gt;Node18 -->
<g id="edge23_Node000020_Node000018" class="edge">
<title>Node20&#45;&gt;Node18</title>
<g id="a_edge23_Node000020_Node000018"><a xlink:title=" ">
<path fill="none" stroke="#63b8ff" d="M1208.18,-110.33C1202.97,-103.21 1195.44,-92.93 1188.93,-84.05"/>
<polygon fill="#63b8ff" stroke="#63b8ff" points="1191.83,-82.08 1183.1,-76.08 1186.18,-86.22 1191.83,-82.08"/>
</a>
</g>
</g>
<!-- Node20&#45;&gt;Node20 -->
<g id="edge24_Node000020_Node000020" class="edge">
<title>Node20&#45;&gt;Node20</title>
<g id="a_edge24_Node000020_Node000020"><a xlink:title=" ">
<path fill="none" stroke="#63b8ff" d="M1250.51,-130.23C1267.76,-131.48 1283,-128.11 1283,-120.12 1283,-113.95 1273.89,-110.53 1261.77,-109.88"/>
<polygon fill="#63b8ff" stroke="#63b8ff" points="1261.98,-106.38 1252.02,-110 1262.06,-113.38 1261.98,-106.38"/>
</a>
</g>
</g>
<!-- Node21 -->
<g id="Node000021" class="node">
<title>Node21</title>
<g id="a_Node000021"><a xlink:title=" ">
<polygon fill="#e0e0e0" stroke="#999999" points="1320.38,-74.5 1242.88,-74.5 1242.88,-55.25 1320.38,-55.25 1320.38,-74.5"/>
<text text-anchor="middle" x="1281.62" y="-61" font-family="Helvetica,sans-Serif" font-size="10.00">unordered_set</text>
</a>
</g>
</g>
<!-- Node20&#45;&gt;Node21 -->
<g id="edge22_Node000020_Node000021" class="edge">
<title>Node20&#45;&gt;Node21</title>
<g id="a_edge22_Node000020_Node000021"><a xlink:title=" ">
<path fill="none" stroke="#63b8ff" d="M1225.99,-110.09C1235.67,-102.4 1249.82,-91.15 1261.43,-81.93"/>
<polygon fill="#63b8ff" stroke="#63b8ff" points="1263.59,-84.68 1269.24,-75.72 1259.24,-79.2 1263.59,-84.68"/>
</a>
</g>
</g>
</g>
</svg>
