<?xml version="1.0" encoding="UTF-8" standalone="no"?>
<!DOCTYPE svg PUBLIC "-//W3C//DTD SVG 1.1//EN"
 "http://www.w3.org/Graphics/SVG/1.1/DTD/svg11.dtd">
<!-- Generated by graphviz version 12.2.1 (20241206.2353)
 -->
<!-- Title: include/AABBtree.hh Pages: 1 -->
<svg width="1067pt" height="193pt"
 viewBox="0.00 0.00 1066.95 193.00" xmlns="http://www.w3.org/2000/svg" xmlns:xlink="http://www.w3.org/1999/xlink">
<g id="graph0" class="graph" transform="scale(1 1) rotate(0) translate(4 189)">
<title>include/AABBtree.hh</title>
<!-- Node1 -->
<g id="Node000001" class="node">
<title>Node1</title>
<g id="a_Node000001"><a xlink:title=" ">
<polygon fill="#999999" stroke="#666666" points="529,-185 422.25,-185 422.25,-165.75 529,-165.75 529,-185"/>
<text text-anchor="middle" x="475.62" y="-171.5" font-family="Helvetica,sans-Serif" font-size="10.00">include/AABBtree.hh</text>
</a>
</g>
</g>
<!-- Node2 -->
<g id="Node000002" class="node">
<title>Node2</title>
<g id="a_Node000002"><a xlink:title=" ">
<polygon fill="#e0e0e0" stroke="#999999" points="39.25,-129.75 0,-129.75 0,-110.5 39.25,-110.5 39.25,-129.75"/>
<text text-anchor="middle" x="19.62" y="-116.25" font-family="Helvetica,sans-Serif" font-size="10.00">limits</text>
</a>
</g>
</g>
<!-- Node1&#45;&gt;Node2 -->
<g id="edge1_Node000001_Node000002" class="edge">
<title>Node1&#45;&gt;Node2</title>
<g id="a_edge1_Node000001_Node000002"><a xlink:title=" ">
<path fill="none" stroke="#63b8ff" d="M421.89,-171.95C342.63,-167.68 189.64,-156.77 50.73,-129.78"/>
<polygon fill="#63b8ff" stroke="#63b8ff" points="51.45,-126.36 40.96,-127.85 50.09,-133.22 51.45,-126.36"/>
</a>
</g>
</g>
<!-- Node3 -->
<g id="Node000003" class="node">
<title>Node3</title>
<g id="a_Node000003"><a xlink:title=" ">
<polygon fill="#e0e0e0" stroke="#999999" points="119.5,-129.75 57.75,-129.75 57.75,-110.5 119.5,-110.5 119.5,-129.75"/>
<text text-anchor="middle" x="88.62" y="-116.25" font-family="Helvetica,sans-Serif" font-size="10.00">type_traits</text>
</a>
</g>
</g>
<!-- Node1&#45;&gt;Node3 -->
<g id="edge2_Node000001_Node000003" class="edge">
<title>Node1&#45;&gt;Node3</title>
<g id="a_edge2_Node000001_Node000003"><a xlink:title=" ">
<path fill="none" stroke="#63b8ff" d="M421.91,-168.89C355.81,-161.83 239.91,-148.42 130.8,-129.99"/>
<polygon fill="#63b8ff" stroke="#63b8ff" points="131.52,-126.56 121.08,-128.33 130.34,-133.46 131.52,-126.56"/>
</a>
</g>
</g>
<!-- Node4 -->
<g id="Node000004" class="node">
<title>Node4</title>
<g id="a_Node000004"><a xlink:title=" ">
<polygon fill="#e0e0e0" stroke="#999999" points="175.5,-129.75 137.75,-129.75 137.75,-110.5 175.5,-110.5 175.5,-129.75"/>
<text text-anchor="middle" x="156.62" y="-116.25" font-family="Helvetica,sans-Serif" font-size="10.00">array</text>
</a>
</g>
</g>
<!-- Node1&#45;&gt;Node4 -->
<g id="edge3_Node000001_Node000004" class="edge">
<title>Node1&#45;&gt;Node4</title>
<g id="a_edge3_Node000001_Node000004"><a xlink:title=" ">
<path fill="none" stroke="#63b8ff" d="M421.81,-168.52C365.48,-161.86 274.31,-149.58 186.98,-129.99"/>
<polygon fill="#63b8ff" stroke="#63b8ff" points="187.81,-126.59 177.28,-127.78 186.25,-133.41 187.81,-126.59"/>
</a>
</g>
</g>
<!-- Node5 -->
<g id="Node000005" class="node">
<title>Node5</title>
<g id="a_Node000005"><a xlink:title=" ">
<polygon fill="#e0e0e0" stroke="#999999" points="236.12,-129.75 193.12,-129.75 193.12,-110.5 236.12,-110.5 236.12,-129.75"/>
<text text-anchor="middle" x="214.62" y="-116.25" font-family="Helvetica,sans-Serif" font-size="10.00">vector</text>
</a>
</g>
</g>
<!-- Node1&#45;&gt;Node5 -->
<g id="edge4_Node000001_Node000005" class="edge">
<title>Node1&#45;&gt;Node5</title>
<g id="a_edge4_Node000001_Node000005"><a xlink:title=" ">
<path fill="none" stroke="#63b8ff" d="M422.12,-165.43C377.59,-157.68 312.33,-145.59 247.36,-130.25"/>
<polygon fill="#63b8ff" stroke="#63b8ff" points="248.53,-126.94 237.99,-128.02 246.91,-133.74 248.53,-126.94"/>
</a>
</g>
</g>
<!-- Node6 -->
<g id="Node000006" class="node">
<title>Node6</title>
<g id="a_Node000006"><a xlink:title=" ">
<polygon fill="#e0e0e0" stroke="#999999" points="283.38,-129.75 253.88,-129.75 253.88,-110.5 283.38,-110.5 283.38,-129.75"/>
<text text-anchor="middle" x="268.62" y="-116.25" font-family="Helvetica,sans-Serif" font-size="10.00">set</text>
</a>
</g>
</g>
<!-- Node1&#45;&gt;Node6 -->
<g id="edge5_Node000001_Node000006" class="edge">
<title>Node1&#45;&gt;Node6</title>
<g id="a_edge5_Node000001_Node000006"><a xlink:title=" ">
<path fill="none" stroke="#63b8ff" d="M432.76,-165.27C397.85,-157.56 347.13,-145.67 294.65,-130.11"/>
<polygon fill="#63b8ff" stroke="#63b8ff" points="295.81,-126.81 285.23,-127.28 293.8,-133.51 295.81,-126.81"/>
</a>
</g>
</g>
<!-- Node7 -->
<g id="Node000007" class="node">
<title>Node7</title>
<g id="a_Node000007"><a xlink:title=" ">
<polygon fill="#e0e0e0" stroke="#999999" points="336,-129.75 301.25,-129.75 301.25,-110.5 336,-110.5 336,-129.75"/>
<text text-anchor="middle" x="318.62" y="-116.25" font-family="Helvetica,sans-Serif" font-size="10.00">map</text>
</a>
</g>
</g>
<!-- Node1&#45;&gt;Node7 -->
<g id="edge6_Node000001_Node000007" class="edge">
<title>Node1&#45;&gt;Node7</title>
<g id="a_edge6_Node000001_Node000007"><a xlink:title=" ">
<path fill="none" stroke="#63b8ff" d="M448.99,-165.34C420.57,-155.7 375.73,-140.49 346.75,-130.66"/>
<polygon fill="#63b8ff" stroke="#63b8ff" points="348.15,-127.44 337.55,-127.55 345.9,-134.07 348.15,-127.44"/>
</a>
</g>
</g>
<!-- Node8 -->
<g id="Node000008" class="node">
<title>Node8</title>
<g id="a_Node000008"><a xlink:title=" ">
<polygon fill="#e0e0e0" stroke="#999999" points="407.38,-129.75 353.88,-129.75 353.88,-110.5 407.38,-110.5 407.38,-129.75"/>
<text text-anchor="middle" x="380.62" y="-116.25" font-family="Helvetica,sans-Serif" font-size="10.00">iostream</text>
</a>
</g>
</g>
<!-- Node1&#45;&gt;Node8 -->
<g id="edge7_Node000001_Node000008" class="edge">
<title>Node1&#45;&gt;Node8</title>
<g id="a_edge7_Node000001_Node000008"><a xlink:title=" ">
<path fill="none" stroke="#63b8ff" d="M459.51,-165.34C445.04,-157.23 423.55,-145.18 406.64,-135.71"/>
<polygon fill="#63b8ff" stroke="#63b8ff" points="408.57,-132.78 398.14,-130.94 405.15,-138.89 408.57,-132.78"/>
</a>
</g>
</g>
<!-- Node9 -->
<g id="Node000009" class="node">
<title>Node9</title>
<g id="a_Node000009"><a xlink:title=" ">
<polygon fill="#e0e0e0" stroke="#999999" points="464.25,-129.75 425,-129.75 425,-110.5 464.25,-110.5 464.25,-129.75"/>
<text text-anchor="middle" x="444.62" y="-116.25" font-family="Helvetica,sans-Serif" font-size="10.00">utility</text>
</a>
</g>
</g>
<!-- Node1&#45;&gt;Node9 -->
<g id="edge8_Node000001_Node000009" class="edge">
<title>Node1&#45;&gt;Node9</title>
<g id="a_edge8_Node000001_Node000009"><a xlink:title=" ">
<path fill="none" stroke="#63b8ff" d="M470.51,-165.58C466.45,-158.61 460.63,-148.62 455.54,-139.87"/>
<polygon fill="#63b8ff" stroke="#63b8ff" points="458.67,-138.3 450.62,-131.42 452.62,-141.82 458.67,-138.3"/>
</a>
</g>
</g>
<!-- Node10 -->
<g id="Node000010" class="node">
<title>Node10</title>
<g id="a_Node000010"><a xlink:title=" ">
<polygon fill="#e0e0e0" stroke="#999999" points="533.25,-129.75 482,-129.75 482,-110.5 533.25,-110.5 533.25,-129.75"/>
<text text-anchor="middle" x="507.62" y="-116.25" font-family="Helvetica,sans-Serif" font-size="10.00">memory</text>
</a>
</g>
</g>
<!-- Node1&#45;&gt;Node10 -->
<g id="edge9_Node000001_Node000010" class="edge">
<title>Node1&#45;&gt;Node10</title>
<g id="a_edge9_Node000001_Node000010"><a xlink:title=" ">
<path fill="none" stroke="#63b8ff" d="M480.91,-165.58C485.1,-158.61 491.1,-148.62 496.36,-139.87"/>
<polygon fill="#63b8ff" stroke="#63b8ff" points="499.3,-141.78 501.45,-131.41 493.3,-138.18 499.3,-141.78"/>
</a>
</g>
</g>
<!-- Node11 -->
<g id="Node000011" class="node">
<title>Node11</title>
<g id="a_Node000011"><a xlink:title=" ">
<polygon fill="#e0e0e0" stroke="#999999" points="607.5,-129.75 551.75,-129.75 551.75,-110.5 607.5,-110.5 607.5,-129.75"/>
<text text-anchor="middle" x="579.62" y="-116.25" font-family="Helvetica,sans-Serif" font-size="10.00">algorithm</text>
</a>
</g>
</g>
<!-- Node1&#45;&gt;Node11 -->
<g id="edge10_Node000001_Node000011" class="edge">
<title>Node1&#45;&gt;Node11</title>
<g id="a_edge10_Node000001_Node000011"><a xlink:title=" ">
<path fill="none" stroke="#63b8ff" d="M493.27,-165.34C509.25,-157.16 533.08,-144.96 551.66,-135.44"/>
<polygon fill="#63b8ff" stroke="#63b8ff" points="553.24,-138.57 560.55,-130.89 550.05,-132.33 553.24,-138.57"/>
</a>
</g>
</g>
<!-- Node12 -->
<g id="Node000012" class="node">
<title>Node12</title>
<g id="a_Node000012"><a xlink:title=" ">
<polygon fill="#e0e0e0" stroke="#999999" points="675.88,-129.75 625.38,-129.75 625.38,-110.5 675.88,-110.5 675.88,-129.75"/>
<text text-anchor="middle" x="650.62" y="-116.25" font-family="Helvetica,sans-Serif" font-size="10.00">numeric</text>
</a>
</g>
</g>
<!-- Node1&#45;&gt;Node12 -->
<g id="edge11_Node000001_Node000012" class="edge">
<title>Node1&#45;&gt;Node12</title>
<g id="a_edge11_Node000001_Node000012"><a xlink:title=" ">
<path fill="none" stroke="#63b8ff" d="M505.31,-165.34C535.41,-156.18 582.02,-142 614.3,-132.18"/>
<polygon fill="#63b8ff" stroke="#63b8ff" points="615.07,-135.6 623.62,-129.34 613.03,-128.9 615.07,-135.6"/>
</a>
</g>
</g>
<!-- Node13 -->
<g id="Node000013" class="node">
<title>Node13</title>
<g id="a_Node000013"><a xlink:title=" ">
<polygon fill="#e0e0e0" stroke="#999999" points="765.75,-129.75 693.5,-129.75 693.5,-110.5 765.75,-110.5 765.75,-129.75"/>
<text text-anchor="middle" x="729.62" y="-116.25" font-family="Helvetica,sans-Serif" font-size="10.00">Eigen/Dense</text>
</a>
</g>
</g>
<!-- Node1&#45;&gt;Node13 -->
<g id="edge12_Node000001_Node000013" class="edge">
<title>Node1&#45;&gt;Node13</title>
<g id="a_edge12_Node000001_Node000013"><a xlink:title=" ">
<path fill="none" stroke="#63b8ff" d="M519,-165.28C564.29,-155.79 635.12,-140.94 681.95,-131.12"/>
<polygon fill="#63b8ff" stroke="#63b8ff" points="682.47,-134.59 691.54,-129.11 681.03,-127.74 682.47,-134.59"/>
</a>
</g>
</g>
<!-- Node14 -->
<g id="Node000014" class="node">
<title>Node14</title>
<g id="a_Node000014"><a xlink:title=" ">
<polygon fill="#e0e0e0" stroke="#999999" points="869.88,-129.75 783.38,-129.75 783.38,-110.5 869.88,-110.5 869.88,-129.75"/>
<text text-anchor="middle" x="826.62" y="-116.25" font-family="Helvetica,sans-Serif" font-size="10.00">Eigen/Geometry</text>
</a>
</g>
</g>
<!-- Node1&#45;&gt;Node14 -->
<g id="edge13_Node000001_Node000014" class="edge">
<title>Node1&#45;&gt;Node14</title>
<g id="a_edge13_Node000001_Node000014"><a xlink:title=" ">
<path fill="none" stroke="#63b8ff" d="M529.41,-166.62C586.9,-158.26 681.03,-144.41 771.63,-130.2"/>
<polygon fill="#63b8ff" stroke="#63b8ff" points="772.11,-133.67 781.45,-128.66 771.02,-126.75 772.11,-133.67"/>
</a>
</g>
</g>
<!-- Node15 -->
<g id="Node000015" class="node">
<title>Node15</title>
<g id="a_Node000015"><a xlink:href="_box_8hxx.html" target="_top" xlink:title=" ">
<polygon fill="white" stroke="#666666" points="1024.88,-74.5 926.38,-74.5 926.38,-55.25 1024.88,-55.25 1024.88,-74.5"/>
<text text-anchor="middle" x="975.62" y="-61" font-family="Helvetica,sans-Serif" font-size="10.00">AABBtree/Box.hxx</text>
</a>
</g>
</g>
<!-- Node1&#45;&gt;Node15 -->
<g id="edge14_Node000001_Node000015" class="edge">
<title>Node1&#45;&gt;Node15</title>
<g id="a_edge14_Node000001_Node000015"><a xlink:title=" ">
<path fill="none" stroke="#63b8ff" d="M529.26,-171.55C623.7,-166.07 815.64,-152.48 878.62,-129.75 894.47,-124.03 930.97,-98.56 954.4,-81.56"/>
<polygon fill="#63b8ff" stroke="#63b8ff" points="956.31,-84.49 962.32,-75.77 952.18,-78.84 956.31,-84.49"/>
</a>
</g>
</g>
<!-- Node16 -->
<g id="Node000016" class="node">
<title>Node16</title>
<g id="a_Node000016"><a xlink:href="_ray_8hxx.html" target="_top" xlink:title=" ">
<polygon fill="white" stroke="#666666" points="1024.5,-19.25 926.75,-19.25 926.75,0 1024.5,0 1024.5,-19.25"/>
<text text-anchor="middle" x="975.62" y="-5.75" font-family="Helvetica,sans-Serif" font-size="10.00">AABBtree/Ray.hxx</text>
</a>
</g>
</g>
<!-- Node1&#45;&gt;Node16 -->
<g id="edge17_Node000001_Node000016" class="edge">
<title>Node1&#45;&gt;Node16</title>
<g id="a_edge17_Node000001_Node000016"><a xlink:title=" ">
<path fill="none" stroke="#63b8ff" d="M529.04,-174.28C665.27,-173.48 1017.48,-167.72 1052.62,-129.75 1067.83,-113.32 1051.66,-80.35 1033.62,-55.25 1025.14,-43.44 1012.64,-33.27 1001.42,-25.63"/>
<polygon fill="#63b8ff" stroke="#63b8ff" points="1003.6,-22.87 993.3,-20.42 999.82,-28.76 1003.6,-22.87"/>
</a>
</g>
</g>
<!-- Node17 -->
<g id="Node000017" class="node">
<title>Node17</title>
<g id="a_Node000017"><a xlink:href="_tree_8hxx.html" target="_top" xlink:title=" ">
<polygon fill="white" stroke="#666666" points="1026,-129.75 925.25,-129.75 925.25,-110.5 1026,-110.5 1026,-129.75"/>
<text text-anchor="middle" x="975.62" y="-116.25" font-family="Helvetica,sans-Serif" font-size="10.00">AABBtree/Tree.hxx</text>
</a>
</g>
</g>
<!-- Node1&#45;&gt;Node17 -->
<g id="edge18_Node000001_Node000017" class="edge">
<title>Node1&#45;&gt;Node17</title>
<g id="a_edge18_Node000001_Node000017"><a xlink:title=" ">
<path fill="none" stroke="#63b8ff" d="M529.38,-169.43C611.75,-161.73 774.1,-146.05 911.62,-129.75 912.3,-129.67 912.99,-129.59 913.67,-129.51"/>
<polygon fill="#63b8ff" stroke="#63b8ff" points="913.99,-132.99 923.49,-128.29 913.13,-126.05 913.99,-132.99"/>
</a>
</g>
</g>
<!-- Node15&#45;&gt;Node16 -->
<g id="edge15_Node000015_Node000016" class="edge">
<title>Node15&#45;&gt;Node16</title>
<g id="a_edge15_Node000015_Node000016"><a xlink:title=" ">
<path fill="none" stroke="#63b8ff" d="M970.46,-55.08C969.05,-48.49 968.58,-39.21 969.05,-30.82"/>
<polygon fill="#63b8ff" stroke="#63b8ff" points="972.5,-31.46 970.24,-21.11 965.55,-30.62 972.5,-31.46"/>
</a>
</g>
</g>
<!-- Node16&#45;&gt;Node15 -->
<g id="edge16_Node000016_Node000015" class="edge">
<title>Node16&#45;&gt;Node15</title>
<g id="a_edge16_Node000016_Node000015"><a xlink:title=" ">
<path fill="none" stroke="#63b8ff" d="M980.83,-19.61C982.22,-26.25 982.67,-35.55 982.18,-43.92"/>
<polygon fill="#63b8ff" stroke="#63b8ff" points="978.74,-43.22 980.98,-53.58 985.69,-44.09 978.74,-43.22"/>
</a>
</g>
</g>
<!-- Node17&#45;&gt;Node15 -->
<g id="edge19_Node000017_Node000015" class="edge">
<title>Node17&#45;&gt;Node15</title>
<g id="a_edge19_Node000017_Node000015"><a xlink:title=" ">
<path fill="none" stroke="#63b8ff" d="M975.62,-110.33C975.62,-103.82 975.62,-94.67 975.62,-86.37"/>
<polygon fill="#63b8ff" stroke="#63b8ff" points="979.13,-86.37 975.63,-76.37 972.13,-86.37 979.13,-86.37"/>
</a>
</g>
</g>
<!-- Node17&#45;&gt;Node17 -->
<g id="edge20_Node000017_Node000017" class="edge">
<title>Node17&#45;&gt;Node17</title>
<g id="a_edge20_Node000017_Node000017"><a xlink:title=" ">
<path fill="none" stroke="#63b8ff" d="M1011.51,-130.23C1028.76,-131.48 1044,-128.11 1044,-120.12 1044,-113.95 1034.89,-110.53 1022.77,-109.88"/>
<polygon fill="#63b8ff" stroke="#63b8ff" points="1022.98,-106.38 1013.02,-110 1023.06,-113.38 1022.98,-106.38"/>
</a>
</g>
</g>
</g>
</svg>
