<?xml version="1.0" encoding="UTF-8" standalone="no"?>
<!DOCTYPE svg PUBLIC "-//W3C//DTD SVG 1.1//EN"
 "http://www.w3.org/Graphics/SVG/1.1/DTD/svg11.dtd">
<!-- Generated by graphviz version 12.2.1 (20241206.2353)
 -->
<!-- Title: include/AABBtree.hh Pages: 1 -->
<svg width="1168pt" height="138pt"
 viewBox="0.00 0.00 1168.00 137.75" xmlns="http://www.w3.org/2000/svg" xmlns:xlink="http://www.w3.org/1999/xlink">
<g id="graph0" class="graph" transform="scale(1 1) rotate(0) translate(4 133.75)">
<title>include/AABBtree.hh</title>
<!-- Node1 -->
<g id="Node000001" class="node">
<title>Node1</title>
<g id="a_Node000001"><a xlink:title=" ">
<polygon fill="#999999" stroke="#666666" points="529,-129.75 422.25,-129.75 422.25,-110.5 529,-110.5 529,-129.75"/>
<text text-anchor="middle" x="475.62" y="-116.25" font-family="Helvetica,sans-Serif" font-size="10.00">include/AABBtree.hh</text>
</a>
</g>
</g>
<!-- Node2 -->
<g id="Node000002" class="node">
<title>Node2</title>
<g id="a_Node000002"><a xlink:title=" ">
<polygon fill="#e0e0e0" stroke="#999999" points="39.25,-74.5 0,-74.5 0,-55.25 39.25,-55.25 39.25,-74.5"/>
<text text-anchor="middle" x="19.62" y="-61" font-family="Helvetica,sans-Serif" font-size="10.00">limits</text>
</a>
</g>
</g>
<!-- Node1&#45;&gt;Node2 -->
<g id="edge1_Node000001_Node000002" class="edge">
<title>Node1&#45;&gt;Node2</title>
<g id="a_edge1_Node000001_Node000002"><a xlink:title=" ">
<path fill="none" stroke="#63b8ff" d="M421.89,-116.7C342.63,-112.43 189.64,-101.52 50.73,-74.53"/>
<polygon fill="#63b8ff" stroke="#63b8ff" points="51.45,-71.11 40.96,-72.6 50.09,-77.97 51.45,-71.11"/>
</a>
</g>
</g>
<!-- Node3 -->
<g id="Node000003" class="node">
<title>Node3</title>
<g id="a_Node000003"><a xlink:title=" ">
<polygon fill="#e0e0e0" stroke="#999999" points="119.5,-74.5 57.75,-74.5 57.75,-55.25 119.5,-55.25 119.5,-74.5"/>
<text text-anchor="middle" x="88.62" y="-61" font-family="Helvetica,sans-Serif" font-size="10.00">type_traits</text>
</a>
</g>
</g>
<!-- Node1&#45;&gt;Node3 -->
<g id="edge2_Node000001_Node000003" class="edge">
<title>Node1&#45;&gt;Node3</title>
<g id="a_edge2_Node000001_Node000003"><a xlink:title=" ">
<path fill="none" stroke="#63b8ff" d="M421.91,-113.64C355.81,-106.58 239.91,-93.17 130.8,-74.74"/>
<polygon fill="#63b8ff" stroke="#63b8ff" points="131.52,-71.31 121.08,-73.08 130.34,-78.21 131.52,-71.31"/>
</a>
</g>
</g>
<!-- Node4 -->
<g id="Node000004" class="node">
<title>Node4</title>
<g id="a_Node000004"><a xlink:title=" ">
<polygon fill="#e0e0e0" stroke="#999999" points="175.5,-74.5 137.75,-74.5 137.75,-55.25 175.5,-55.25 175.5,-74.5"/>
<text text-anchor="middle" x="156.62" y="-61" font-family="Helvetica,sans-Serif" font-size="10.00">array</text>
</a>
</g>
</g>
<!-- Node1&#45;&gt;Node4 -->
<g id="edge3_Node000001_Node000004" class="edge">
<title>Node1&#45;&gt;Node4</title>
<g id="a_edge3_Node000001_Node000004"><a xlink:title=" ">
<path fill="none" stroke="#63b8ff" d="M421.81,-113.27C365.48,-106.61 274.31,-94.33 186.98,-74.74"/>
<polygon fill="#63b8ff" stroke="#63b8ff" points="187.81,-71.34 177.28,-72.53 186.25,-78.16 187.81,-71.34"/>
</a>
</g>
</g>
<!-- Node5 -->
<g id="Node000005" class="node">
<title>Node5</title>
<g id="a_Node000005"><a xlink:title=" ">
<polygon fill="#e0e0e0" stroke="#999999" points="236.12,-74.5 193.12,-74.5 193.12,-55.25 236.12,-55.25 236.12,-74.5"/>
<text text-anchor="middle" x="214.62" y="-61" font-family="Helvetica,sans-Serif" font-size="10.00">vector</text>
</a>
</g>
</g>
<!-- Node1&#45;&gt;Node5 -->
<g id="edge4_Node000001_Node000005" class="edge">
<title>Node1&#45;&gt;Node5</title>
<g id="a_edge4_Node000001_Node000005"><a xlink:title=" ">
<path fill="none" stroke="#63b8ff" d="M422.12,-110.18C377.59,-102.43 312.33,-90.34 247.36,-75"/>
<polygon fill="#63b8ff" stroke="#63b8ff" points="248.53,-71.69 237.99,-72.77 246.91,-78.49 248.53,-71.69"/>
</a>
</g>
</g>
<!-- Node6 -->
<g id="Node000006" class="node">
<title>Node6</title>
<g id="a_Node000006"><a xlink:title=" ">
<polygon fill="#e0e0e0" stroke="#999999" points="283.38,-74.5 253.88,-74.5 253.88,-55.25 283.38,-55.25 283.38,-74.5"/>
<text text-anchor="middle" x="268.62" y="-61" font-family="Helvetica,sans-Serif" font-size="10.00">set</text>
</a>
</g>
</g>
<!-- Node1&#45;&gt;Node6 -->
<g id="edge5_Node000001_Node000006" class="edge">
<title>Node1&#45;&gt;Node6</title>
<g id="a_edge5_Node000001_Node000006"><a xlink:title=" ">
<path fill="none" stroke="#63b8ff" d="M432.76,-110.02C397.85,-102.31 347.13,-90.42 294.65,-74.86"/>
<polygon fill="#63b8ff" stroke="#63b8ff" points="295.81,-71.56 285.23,-72.03 293.8,-78.26 295.81,-71.56"/>
</a>
</g>
</g>
<!-- Node7 -->
<g id="Node000007" class="node">
<title>Node7</title>
<g id="a_Node000007"><a xlink:title=" ">
<polygon fill="#e0e0e0" stroke="#999999" points="336,-74.5 301.25,-74.5 301.25,-55.25 336,-55.25 336,-74.5"/>
<text text-anchor="middle" x="318.62" y="-61" font-family="Helvetica,sans-Serif" font-size="10.00">map</text>
</a>
</g>
</g>
<!-- Node1&#45;&gt;Node7 -->
<g id="edge6_Node000001_Node000007" class="edge">
<title>Node1&#45;&gt;Node7</title>
<g id="a_edge6_Node000001_Node000007"><a xlink:title=" ">
<path fill="none" stroke="#63b8ff" d="M448.99,-110.09C420.57,-100.45 375.73,-85.24 346.75,-75.41"/>
<polygon fill="#63b8ff" stroke="#63b8ff" points="348.15,-72.19 337.55,-72.3 345.9,-78.82 348.15,-72.19"/>
</a>
</g>
</g>
<!-- Node8 -->
<g id="Node000008" class="node">
<title>Node8</title>
<g id="a_Node000008"><a xlink:title=" ">
<polygon fill="#e0e0e0" stroke="#999999" points="407.38,-74.5 353.88,-74.5 353.88,-55.25 407.38,-55.25 407.38,-74.5"/>
<text text-anchor="middle" x="380.62" y="-61" font-family="Helvetica,sans-Serif" font-size="10.00">iostream</text>
</a>
</g>
</g>
<!-- Node1&#45;&gt;Node8 -->
<g id="edge7_Node000001_Node000008" class="edge">
<title>Node1&#45;&gt;Node8</title>
<g id="a_edge7_Node000001_Node000008"><a xlink:title=" ">
<path fill="none" stroke="#63b8ff" d="M459.51,-110.09C445.04,-101.98 423.55,-89.93 406.64,-80.46"/>
<polygon fill="#63b8ff" stroke="#63b8ff" points="408.57,-77.53 398.14,-75.69 405.15,-83.64 408.57,-77.53"/>
</a>
</g>
</g>
<!-- Node9 -->
<g id="Node000009" class="node">
<title>Node9</title>
<g id="a_Node000009"><a xlink:title=" ">
<polygon fill="#e0e0e0" stroke="#999999" points="464.25,-74.5 425,-74.5 425,-55.25 464.25,-55.25 464.25,-74.5"/>
<text text-anchor="middle" x="444.62" y="-61" font-family="Helvetica,sans-Serif" font-size="10.00">utility</text>
</a>
</g>
</g>
<!-- Node1&#45;&gt;Node9 -->
<g id="edge8_Node000001_Node000009" class="edge">
<title>Node1&#45;&gt;Node9</title>
<g id="a_edge8_Node000001_Node000009"><a xlink:title=" ">
<path fill="none" stroke="#63b8ff" d="M470.51,-110.33C466.45,-103.36 460.63,-93.37 455.54,-84.62"/>
<polygon fill="#63b8ff" stroke="#63b8ff" points="458.67,-83.05 450.62,-76.17 452.62,-86.57 458.67,-83.05"/>
</a>
</g>
</g>
<!-- Node10 -->
<g id="Node000010" class="node">
<title>Node10</title>
<g id="a_Node000010"><a xlink:title=" ">
<polygon fill="#e0e0e0" stroke="#999999" points="533.25,-74.5 482,-74.5 482,-55.25 533.25,-55.25 533.25,-74.5"/>
<text text-anchor="middle" x="507.62" y="-61" font-family="Helvetica,sans-Serif" font-size="10.00">memory</text>
</a>
</g>
</g>
<!-- Node1&#45;&gt;Node10 -->
<g id="edge9_Node000001_Node000010" class="edge">
<title>Node1&#45;&gt;Node10</title>
<g id="a_edge9_Node000001_Node000010"><a xlink:title=" ">
<path fill="none" stroke="#63b8ff" d="M480.91,-110.33C485.1,-103.36 491.1,-93.37 496.36,-84.62"/>
<polygon fill="#63b8ff" stroke="#63b8ff" points="499.3,-86.53 501.45,-76.16 493.3,-82.93 499.3,-86.53"/>
</a>
</g>
</g>
<!-- Node11 -->
<g id="Node000011" class="node">
<title>Node11</title>
<g id="a_Node000011"><a xlink:title=" ">
<polygon fill="#e0e0e0" stroke="#999999" points="607.5,-74.5 551.75,-74.5 551.75,-55.25 607.5,-55.25 607.5,-74.5"/>
<text text-anchor="middle" x="579.62" y="-61" font-family="Helvetica,sans-Serif" font-size="10.00">algorithm</text>
</a>
</g>
</g>
<!-- Node1&#45;&gt;Node11 -->
<g id="edge10_Node000001_Node000011" class="edge">
<title>Node1&#45;&gt;Node11</title>
<g id="a_edge10_Node000001_Node000011"><a xlink:title=" ">
<path fill="none" stroke="#63b8ff" d="M493.27,-110.09C509.25,-101.91 533.08,-89.71 551.66,-80.19"/>
<polygon fill="#63b8ff" stroke="#63b8ff" points="553.24,-83.32 560.55,-75.64 550.05,-77.08 553.24,-83.32"/>
</a>
</g>
</g>
<!-- Node12 -->
<g id="Node000012" class="node">
<title>Node12</title>
<g id="a_Node000012"><a xlink:title=" ">
<polygon fill="#e0e0e0" stroke="#999999" points="675.88,-74.5 625.38,-74.5 625.38,-55.25 675.88,-55.25 675.88,-74.5"/>
<text text-anchor="middle" x="650.62" y="-61" font-family="Helvetica,sans-Serif" font-size="10.00">numeric</text>
</a>
</g>
</g>
<!-- Node1&#45;&gt;Node12 -->
<g id="edge11_Node000001_Node000012" class="edge">
<title>Node1&#45;&gt;Node12</title>
<g id="a_edge11_Node000001_Node000012"><a xlink:title=" ">
<path fill="none" stroke="#63b8ff" d="M505.31,-110.09C535.41,-100.93 582.02,-86.75 614.3,-76.93"/>
<polygon fill="#63b8ff" stroke="#63b8ff" points="615.07,-80.35 623.62,-74.09 613.03,-73.65 615.07,-80.35"/>
</a>
</g>
</g>
<!-- Node13 -->
<g id="Node000013" class="node">
<title>Node13</title>
<g id="a_Node000013"><a xlink:title=" ">
<polygon fill="#e0e0e0" stroke="#999999" points="765.75,-74.5 693.5,-74.5 693.5,-55.25 765.75,-55.25 765.75,-74.5"/>
<text text-anchor="middle" x="729.62" y="-61" font-family="Helvetica,sans-Serif" font-size="10.00">Eigen/Dense</text>
</a>
</g>
</g>
<!-- Node1&#45;&gt;Node13 -->
<g id="edge12_Node000001_Node000013" class="edge">
<title>Node1&#45;&gt;Node13</title>
<g id="a_edge12_Node000001_Node000013"><a xlink:title=" ">
<path fill="none" stroke="#63b8ff" d="M519,-110.03C564.29,-100.54 635.12,-85.69 681.95,-75.87"/>
<polygon fill="#63b8ff" stroke="#63b8ff" points="682.47,-79.34 691.54,-73.86 681.03,-72.49 682.47,-79.34"/>
</a>
</g>
</g>
<!-- Node14 -->
<g id="Node000014" class="node">
<title>Node14</title>
<g id="a_Node000014"><a xlink:title=" ">
<polygon fill="#e0e0e0" stroke="#999999" points="869.88,-74.5 783.38,-74.5 783.38,-55.25 869.88,-55.25 869.88,-74.5"/>
<text text-anchor="middle" x="826.62" y="-61" font-family="Helvetica,sans-Serif" font-size="10.00">Eigen/Geometry</text>
</a>
</g>
</g>
<!-- Node1&#45;&gt;Node14 -->
<g id="edge13_Node000001_Node000014" class="edge">
<title>Node1&#45;&gt;Node14</title>
<g id="a_edge13_Node000001_Node000014"><a xlink:title=" ">
<path fill="none" stroke="#63b8ff" d="M529.41,-111.37C586.9,-103.01 681.03,-89.16 771.63,-74.95"/>
<polygon fill="#63b8ff" stroke="#63b8ff" points="772.11,-78.42 781.45,-73.41 771.02,-71.5 772.11,-78.42"/>
</a>
</g>
</g>
<!-- Node15 -->
<g id="Node000015" class="node">
<title>Node15</title>
<g id="a_Node000015"><a xlink:href="_box_8hxx.html" target="_top" xlink:title=" ">
<polygon fill="white" stroke="#666666" points="1043.88,-19.25 945.38,-19.25 945.38,0 1043.88,0 1043.88,-19.25"/>
<text text-anchor="middle" x="994.62" y="-5.75" font-family="Helvetica,sans-Serif" font-size="10.00">AABBtree/Box.hxx</text>
</a>
</g>
</g>
<!-- Node1&#45;&gt;Node15 -->
<g id="edge14_Node000001_Node000015" class="edge">
<title>Node1&#45;&gt;Node15</title>
<g id="a_edge14_Node000001_Node000015"><a xlink:title=" ">
<path fill="none" stroke="#63b8ff" d="M529.48,-119.78C608.09,-119.27 758,-112.71 878.62,-74.5 888.13,-71.49 937.98,-43.25 969.16,-25.34"/>
<polygon fill="#63b8ff" stroke="#63b8ff" points="970.7,-28.5 977.62,-20.47 967.2,-22.43 970.7,-28.5"/>
</a>
</g>
</g>
<!-- Node16 -->
<g id="Node000016" class="node">
<title>Node16</title>
<g id="a_Node000016"><a xlink:href="_ray_8hxx.html" target="_top" xlink:title=" ">
<polygon fill="white" stroke="#666666" points="1023.5,-74.5 925.75,-74.5 925.75,-55.25 1023.5,-55.25 1023.5,-74.5"/>
<text text-anchor="middle" x="974.62" y="-61" font-family="Helvetica,sans-Serif" font-size="10.00">AABBtree/Ray.hxx</text>
</a>
</g>
</g>
<!-- Node1&#45;&gt;Node16 -->
<g id="edge15_Node000001_Node000016" class="edge">
<title>Node1&#45;&gt;Node16</title>
<g id="a_edge15_Node000001_Node000016"><a xlink:title=" ">
<path fill="none" stroke="#63b8ff" d="M529.39,-114.22C611.76,-106.56 774.12,-90.94 911.62,-74.5 912.47,-74.4 913.32,-74.3 914.17,-74.19"/>
<polygon fill="#63b8ff" stroke="#63b8ff" points="914.48,-77.68 923.96,-72.96 913.6,-70.74 914.48,-77.68"/>
</a>
</g>
</g>
<!-- Node17 -->
<g id="Node000017" class="node">
<title>Node17</title>
<g id="a_Node000017"><a xlink:href="_tree_8hxx.html" target="_top" xlink:title=" ">
<polygon fill="white" stroke="#666666" points="1142,-74.5 1041.25,-74.5 1041.25,-55.25 1142,-55.25 1142,-74.5"/>
<text text-anchor="middle" x="1091.62" y="-61" font-family="Helvetica,sans-Serif" font-size="10.00">AABBtree/Tree.hxx</text>
</a>
</g>
</g>
<!-- Node1&#45;&gt;Node17 -->
<g id="edge16_Node000001_Node000017" class="edge">
<title>Node1&#45;&gt;Node17</title>
<g id="a_edge16_Node000001_Node000017"><a xlink:title=" ">
<path fill="none" stroke="#63b8ff" d="M529.12,-116C626.55,-110.07 839.73,-95.91 1029.49,-74.79"/>
<polygon fill="#63b8ff" stroke="#63b8ff" points="1029.75,-78.28 1039.3,-73.69 1028.97,-71.33 1029.75,-78.28"/>
</a>
</g>
</g>
<!-- Node17&#45;&gt;Node15 -->
<g id="edge17_Node000017_Node000015" class="edge">
<title>Node17&#45;&gt;Node15</title>
<g id="a_edge17_Node000017_Node000015"><a xlink:title=" ">
<path fill="none" stroke="#63b8ff" d="M1075.17,-54.84C1060.4,-46.73 1038.45,-34.68 1021.19,-25.21"/>
<polygon fill="#63b8ff" stroke="#63b8ff" points="1022.94,-22.18 1012.49,-20.43 1019.57,-28.31 1022.94,-22.18"/>
</a>
</g>
</g>
<!-- Node17&#45;&gt;Node17 -->
<g id="edge18_Node000017_Node000017" class="edge">
<title>Node17&#45;&gt;Node17</title>
<g id="a_edge18_Node000017_Node000017"><a xlink:title=" ">
<path fill="none" stroke="#63b8ff" d="M1127.51,-74.98C1144.76,-76.23 1160,-72.86 1160,-64.88 1160,-58.7 1150.89,-55.28 1138.77,-54.63"/>
<polygon fill="#63b8ff" stroke="#63b8ff" points="1138.98,-51.13 1129.02,-54.75 1139.06,-58.13 1138.98,-51.13"/>
</a>
</g>
</g>
</g>
</svg>
