<?xml version="1.0" encoding="UTF-8" standalone="no"?>
<!DOCTYPE svg PUBLIC "-//W3C//DTD SVG 1.1//EN"
 "http://www.w3.org/Graphics/SVG/1.1/DTD/svg11.dtd">
<!-- Generated by graphviz version 12.2.1 (20241206.2353)
 -->
<!-- Title: include/AABBtree.hh Pages: 1 -->
<svg width="855pt" height="83pt"
 viewBox="0.00 0.00 855.00 82.50" xmlns="http://www.w3.org/2000/svg" xmlns:xlink="http://www.w3.org/1999/xlink">
<g id="graph0" class="graph" transform="scale(1 1) rotate(0) translate(4 78.5)">
<title>include/AABBtree.hh</title>
<!-- Node1 -->
<g id="Node000001" class="node">
<title>Node1</title>
<g id="a_Node000001"><a xlink:title=" ">
<polygon fill="#999999" stroke="#666666" points="403,-74.5 296.25,-74.5 296.25,-55.25 403,-55.25 403,-74.5"/>
<text text-anchor="middle" x="349.62" y="-61" font-family="Helvetica,sans-Serif" font-size="10.00">include/AABBtree.hh</text>
</a>
</g>
</g>
<!-- Node2 -->
<g id="Node000002" class="node">
<title>Node2</title>
<g id="a_Node000002"><a xlink:title=" ">
<polygon fill="#e0e0e0" stroke="#999999" points="39.25,-19.25 0,-19.25 0,0 39.25,0 39.25,-19.25"/>
<text text-anchor="middle" x="19.62" y="-5.75" font-family="Helvetica,sans-Serif" font-size="10.00">limits</text>
</a>
</g>
</g>
<!-- Node1&#45;&gt;Node2 -->
<g id="edge1_Node000001_Node000002" class="edge">
<title>Node1&#45;&gt;Node2</title>
<g id="a_edge1_Node000001_Node000002"><a xlink:title=" ">
<path fill="none" stroke="#63b8ff" d="M295.92,-58.24C237.75,-51.63 142.08,-39.24 50.63,-19.4"/>
<polygon fill="#63b8ff" stroke="#63b8ff" points="51.49,-16 40.97,-17.27 49.98,-22.84 51.49,-16"/>
</a>
</g>
</g>
<!-- Node3 -->
<g id="Node000003" class="node">
<title>Node3</title>
<g id="a_Node000003"><a xlink:title=" ">
<polygon fill="#e0e0e0" stroke="#999999" points="119.5,-19.25 57.75,-19.25 57.75,0 119.5,0 119.5,-19.25"/>
<text text-anchor="middle" x="88.62" y="-5.75" font-family="Helvetica,sans-Serif" font-size="10.00">type_traits</text>
</a>
</g>
</g>
<!-- Node1&#45;&gt;Node3 -->
<g id="edge2_Node000001_Node000003" class="edge">
<title>Node1&#45;&gt;Node3</title>
<g id="a_edge2_Node000001_Node000003"><a xlink:title=" ">
<path fill="none" stroke="#63b8ff" d="M303.88,-54.82C261.52,-46.39 196.48,-33.35 130.63,-19.65"/>
<polygon fill="#63b8ff" stroke="#63b8ff" points="131.61,-16.28 121.11,-17.66 130.18,-23.13 131.61,-16.28"/>
</a>
</g>
</g>
<!-- Node4 -->
<g id="Node000004" class="node">
<title>Node4</title>
<g id="a_Node000004"><a xlink:title=" ">
<polygon fill="#e0e0e0" stroke="#999999" points="175.5,-19.25 137.75,-19.25 137.75,0 175.5,0 175.5,-19.25"/>
<text text-anchor="middle" x="156.62" y="-5.75" font-family="Helvetica,sans-Serif" font-size="10.00">array</text>
</a>
</g>
</g>
<!-- Node1&#45;&gt;Node4 -->
<g id="edge3_Node000001_Node000004" class="edge">
<title>Node1&#45;&gt;Node4</title>
<g id="a_edge3_Node000001_Node000004"><a xlink:title=" ">
<path fill="none" stroke="#63b8ff" d="M313.87,-54.78C282.47,-46.67 235.3,-34.23 186.52,-20.02"/>
<polygon fill="#63b8ff" stroke="#63b8ff" points="187.8,-16.74 177.22,-17.29 185.83,-23.46 187.8,-16.74"/>
</a>
</g>
</g>
<!-- Node5 -->
<g id="Node000005" class="node">
<title>Node5</title>
<g id="a_Node000005"><a xlink:title=" ">
<polygon fill="#e0e0e0" stroke="#999999" points="236.12,-19.25 193.12,-19.25 193.12,0 236.12,0 236.12,-19.25"/>
<text text-anchor="middle" x="214.62" y="-5.75" font-family="Helvetica,sans-Serif" font-size="10.00">vector</text>
</a>
</g>
</g>
<!-- Node1&#45;&gt;Node5 -->
<g id="edge4_Node000001_Node000005" class="edge">
<title>Node1&#45;&gt;Node5</title>
<g id="a_edge4_Node000001_Node000005"><a xlink:title=" ">
<path fill="none" stroke="#63b8ff" d="M326.72,-54.84C304.8,-46.2 271.53,-33.07 246.92,-23.36"/>
<polygon fill="#63b8ff" stroke="#63b8ff" points="248.29,-20.14 237.7,-19.73 245.72,-26.65 248.29,-20.14"/>
</a>
</g>
</g>
<!-- Node6 -->
<g id="Node000006" class="node">
<title>Node6</title>
<g id="a_Node000006"><a xlink:title=" ">
<polygon fill="#e0e0e0" stroke="#999999" points="283.38,-19.25 253.88,-19.25 253.88,0 283.38,0 283.38,-19.25"/>
<text text-anchor="middle" x="268.62" y="-5.75" font-family="Helvetica,sans-Serif" font-size="10.00">set</text>
</a>
</g>
</g>
<!-- Node1&#45;&gt;Node6 -->
<g id="edge5_Node000001_Node000006" class="edge">
<title>Node1&#45;&gt;Node6</title>
<g id="a_edge5_Node000001_Node000006"><a xlink:title=" ">
<path fill="none" stroke="#63b8ff" d="M335.88,-54.84C323.9,-46.96 306.25,-35.36 292.04,-26.02"/>
<polygon fill="#63b8ff" stroke="#63b8ff" points="293.98,-23.1 283.7,-20.53 290.13,-28.95 293.98,-23.1"/>
</a>
</g>
</g>
<!-- Node7 -->
<g id="Node000007" class="node">
<title>Node7</title>
<g id="a_Node000007"><a xlink:title=" ">
<polygon fill="#e0e0e0" stroke="#999999" points="336,-19.25 301.25,-19.25 301.25,0 336,0 336,-19.25"/>
<text text-anchor="middle" x="318.62" y="-5.75" font-family="Helvetica,sans-Serif" font-size="10.00">map</text>
</a>
</g>
</g>
<!-- Node1&#45;&gt;Node7 -->
<g id="edge6_Node000001_Node000007" class="edge">
<title>Node1&#45;&gt;Node7</title>
<g id="a_edge6_Node000001_Node000007"><a xlink:title=" ">
<path fill="none" stroke="#63b8ff" d="M344.51,-55.08C340.45,-48.11 334.63,-38.12 329.54,-29.37"/>
<polygon fill="#63b8ff" stroke="#63b8ff" points="332.67,-27.8 324.62,-20.92 326.62,-31.32 332.67,-27.8"/>
</a>
</g>
</g>
<!-- Node8 -->
<g id="Node000008" class="node">
<title>Node8</title>
<g id="a_Node000008"><a xlink:title=" ">
<polygon fill="#e0e0e0" stroke="#999999" points="407.38,-19.25 353.88,-19.25 353.88,0 407.38,0 407.38,-19.25"/>
<text text-anchor="middle" x="380.62" y="-5.75" font-family="Helvetica,sans-Serif" font-size="10.00">iostream</text>
</a>
</g>
</g>
<!-- Node1&#45;&gt;Node8 -->
<g id="edge7_Node000001_Node000008" class="edge">
<title>Node1&#45;&gt;Node8</title>
<g id="a_edge7_Node000001_Node000008"><a xlink:title=" ">
<path fill="none" stroke="#63b8ff" d="M354.74,-55.08C358.8,-48.11 364.62,-38.12 369.71,-29.37"/>
<polygon fill="#63b8ff" stroke="#63b8ff" points="372.63,-31.32 374.63,-20.92 366.58,-27.8 372.63,-31.32"/>
</a>
</g>
</g>
<!-- Node9 -->
<g id="Node000009" class="node">
<title>Node9</title>
<g id="a_Node000009"><a xlink:title=" ">
<polygon fill="#e0e0e0" stroke="#999999" points="464.25,-19.25 425,-19.25 425,0 464.25,0 464.25,-19.25"/>
<text text-anchor="middle" x="444.62" y="-5.75" font-family="Helvetica,sans-Serif" font-size="10.00">utility</text>
</a>
</g>
</g>
<!-- Node1&#45;&gt;Node9 -->
<g id="edge8_Node000001_Node000009" class="edge">
<title>Node1&#45;&gt;Node9</title>
<g id="a_edge8_Node000001_Node000009"><a xlink:title=" ">
<path fill="none" stroke="#63b8ff" d="M365.74,-54.84C380.21,-46.73 401.7,-34.68 418.61,-25.21"/>
<polygon fill="#63b8ff" stroke="#63b8ff" points="420.1,-28.39 427.11,-20.44 416.68,-22.28 420.1,-28.39"/>
</a>
</g>
</g>
<!-- Node10 -->
<g id="Node000010" class="node">
<title>Node10</title>
<g id="a_Node000010"><a xlink:title=" ">
<polygon fill="#e0e0e0" stroke="#999999" points="533.25,-19.25 482,-19.25 482,0 533.25,0 533.25,-19.25"/>
<text text-anchor="middle" x="507.62" y="-5.75" font-family="Helvetica,sans-Serif" font-size="10.00">memory</text>
</a>
</g>
</g>
<!-- Node1&#45;&gt;Node10 -->
<g id="edge9_Node000001_Node000010" class="edge">
<title>Node1&#45;&gt;Node10</title>
<g id="a_edge9_Node000001_Node000010"><a xlink:title=" ">
<path fill="none" stroke="#63b8ff" d="M376.43,-54.84C402.39,-46.09 441.96,-32.76 470.86,-23.02"/>
<polygon fill="#63b8ff" stroke="#63b8ff" points="471.95,-26.34 480.31,-19.83 469.71,-19.71 471.95,-26.34"/>
</a>
</g>
</g>
<!-- Node11 -->
<g id="Node000011" class="node">
<title>Node11</title>
<g id="a_Node000011"><a xlink:title=" ">
<polygon fill="#e0e0e0" stroke="#999999" points="607.5,-19.25 551.75,-19.25 551.75,0 607.5,0 607.5,-19.25"/>
<text text-anchor="middle" x="579.62" y="-5.75" font-family="Helvetica,sans-Serif" font-size="10.00">algorithm</text>
</a>
</g>
</g>
<!-- Node1&#45;&gt;Node11 -->
<g id="edge10_Node000001_Node000011" class="edge">
<title>Node1&#45;&gt;Node11</title>
<g id="a_edge10_Node000001_Node000011"><a xlink:title=" ">
<path fill="none" stroke="#63b8ff" d="M389.18,-54.75C425.91,-46.27 482.42,-33.22 540.49,-19.74"/>
<polygon fill="#63b8ff" stroke="#63b8ff" points="540.92,-23.24 549.87,-17.57 539.34,-16.42 540.92,-23.24"/>
</a>
</g>
</g>
<!-- Node12 -->
<g id="Node000012" class="node">
<title>Node12</title>
<g id="a_Node000012"><a xlink:title=" ">
<polygon fill="#e0e0e0" stroke="#999999" points="697.75,-19.25 625.5,-19.25 625.5,0 697.75,0 697.75,-19.25"/>
<text text-anchor="middle" x="661.62" y="-5.75" font-family="Helvetica,sans-Serif" font-size="10.00">Eigen/Dense</text>
</a>
</g>
</g>
<!-- Node1&#45;&gt;Node12 -->
<g id="edge11_Node000001_Node000012" class="edge">
<title>Node1&#45;&gt;Node12</title>
<g id="a_edge11_Node000001_Node000012"><a xlink:title=" ">
<path fill="none" stroke="#63b8ff" d="M403.39,-55.27C454.93,-46.94 535.23,-33.74 614.16,-19.66"/>
<polygon fill="#63b8ff" stroke="#63b8ff" points="614.57,-23.14 623.8,-17.93 613.34,-16.25 614.57,-23.14"/>
</a>
</g>
</g>
<!-- Node13 -->
<g id="Node000013" class="node">
<title>Node13</title>
<g id="a_Node000013"><a xlink:href="_aligned_box_8hxx.html" target="_top" xlink:title=" ">
<polygon fill="white" stroke="#666666" points="847,-19.25 716.25,-19.25 716.25,0 847,0 847,-19.25"/>
<text text-anchor="middle" x="781.62" y="-5.75" font-family="Helvetica,sans-Serif" font-size="10.00">AABBtree/AlignedBox.hxx</text>
</a>
</g>
</g>
<!-- Node1&#45;&gt;Node13 -->
<g id="edge12_Node000001_Node000013" class="edge">
<title>Node1&#45;&gt;Node13</title>
<g id="a_edge12_Node000001_Node000013"><a xlink:title=" ">
<path fill="none" stroke="#63b8ff" d="M403.46,-57.24C479.23,-47.9 617.71,-30.83 704.43,-20.14"/>
<polygon fill="#63b8ff" stroke="#63b8ff" points="704.78,-23.62 714.28,-18.93 703.93,-16.68 704.78,-23.62"/>
</a>
</g>
</g>
</g>
</svg>
