<?xml version="1.0" encoding="UTF-8" standalone="no"?>
<!DOCTYPE svg PUBLIC "-//W3C//DTD SVG 1.1//EN"
 "http://www.w3.org/Graphics/SVG/1.1/DTD/svg11.dtd">
<!-- Generated by graphviz version 12.2.1 (20241206.2353)
 -->
<!-- Title: include/AABBtree.hh Pages: 1 -->
<svg width="1231pt" height="193pt"
 viewBox="0.00 0.00 1231.38 193.00" xmlns="http://www.w3.org/2000/svg" xmlns:xlink="http://www.w3.org/1999/xlink">
<g id="graph0" class="graph" transform="scale(1 1) rotate(0) translate(4 189)">
<title>include/AABBtree.hh</title>
<!-- Node1 -->
<g id="Node000001" class="node">
<title>Node1</title>
<g id="a_Node000001"><a xlink:title=" ">
<polygon fill="#999999" stroke="#666666" points="561,-185 454.25,-185 454.25,-165.75 561,-165.75 561,-185"/>
<text text-anchor="middle" x="507.62" y="-171.5" font-family="Helvetica,sans-Serif" font-size="10.00">include/AABBtree.hh</text>
</a>
</g>
</g>
<!-- Node2 -->
<g id="Node000002" class="node">
<title>Node2</title>
<g id="a_Node000002"><a xlink:title=" ">
<polygon fill="#e0e0e0" stroke="#999999" points="39.25,-129.75 0,-129.75 0,-110.5 39.25,-110.5 39.25,-129.75"/>
<text text-anchor="middle" x="19.62" y="-116.25" font-family="Helvetica,sans-Serif" font-size="10.00">limits</text>
</a>
</g>
</g>
<!-- Node1&#45;&gt;Node2 -->
<g id="edge1_Node000001_Node000002" class="edge">
<title>Node1&#45;&gt;Node2</title>
<g id="a_edge1_Node000001_Node000002"><a xlink:title=" ">
<path fill="none" stroke="#63b8ff" d="M453.79,-172.49C369.57,-168.81 201.52,-158.54 50.32,-129.68"/>
<polygon fill="#63b8ff" stroke="#63b8ff" points="51.44,-126.33 40.95,-127.86 50.1,-133.21 51.44,-126.33"/>
</a>
</g>
</g>
<!-- Node3 -->
<g id="Node000003" class="node">
<title>Node3</title>
<g id="a_Node000003"><a xlink:title=" ">
<polygon fill="#e0e0e0" stroke="#999999" points="119.5,-129.75 57.75,-129.75 57.75,-110.5 119.5,-110.5 119.5,-129.75"/>
<text text-anchor="middle" x="88.62" y="-116.25" font-family="Helvetica,sans-Serif" font-size="10.00">type_traits</text>
</a>
</g>
</g>
<!-- Node1&#45;&gt;Node3 -->
<g id="edge2_Node000001_Node000003" class="edge">
<title>Node1&#45;&gt;Node3</title>
<g id="a_edge2_Node000001_Node000003"><a xlink:title=" ">
<path fill="none" stroke="#63b8ff" d="M454.05,-169.69C382.65,-163.08 252.18,-149.77 130.91,-129.98"/>
<polygon fill="#63b8ff" stroke="#63b8ff" points="131.51,-126.53 121.07,-128.35 130.37,-133.43 131.51,-126.53"/>
</a>
</g>
</g>
<!-- Node4 -->
<g id="Node000004" class="node">
<title>Node4</title>
<g id="a_Node000004"><a xlink:title=" ">
<polygon fill="#e0e0e0" stroke="#999999" points="175.5,-129.75 137.75,-129.75 137.75,-110.5 175.5,-110.5 175.5,-129.75"/>
<text text-anchor="middle" x="156.62" y="-116.25" font-family="Helvetica,sans-Serif" font-size="10.00">array</text>
</a>
</g>
</g>
<!-- Node1&#45;&gt;Node4 -->
<g id="edge3_Node000001_Node000004" class="edge">
<title>Node1&#45;&gt;Node4</title>
<g id="a_edge3_Node000001_Node000004"><a xlink:title=" ">
<path fill="none" stroke="#63b8ff" d="M454,-169.64C391.86,-163.57 286.28,-151.43 186.94,-129.93"/>
<polygon fill="#63b8ff" stroke="#63b8ff" points="187.79,-126.54 177.27,-127.8 186.29,-133.37 187.79,-126.54"/>
</a>
</g>
</g>
<!-- Node5 -->
<g id="Node000005" class="node">
<title>Node5</title>
<g id="a_Node000005"><a xlink:title=" ">
<polygon fill="#e0e0e0" stroke="#999999" points="236.12,-129.75 193.12,-129.75 193.12,-110.5 236.12,-110.5 236.12,-129.75"/>
<text text-anchor="middle" x="214.62" y="-116.25" font-family="Helvetica,sans-Serif" font-size="10.00">vector</text>
</a>
</g>
</g>
<!-- Node1&#45;&gt;Node5 -->
<g id="edge4_Node000001_Node000005" class="edge">
<title>Node1&#45;&gt;Node5</title>
<g id="a_edge4_Node000001_Node000005"><a xlink:title=" ">
<path fill="none" stroke="#63b8ff" d="M453.89,-167.06C402.89,-159.71 323.91,-147.29 247.3,-130.17"/>
<polygon fill="#63b8ff" stroke="#63b8ff" points="248.51,-126.85 237.98,-128.06 246.96,-133.68 248.51,-126.85"/>
</a>
</g>
</g>
<!-- Node6 -->
<g id="Node000006" class="node">
<title>Node6</title>
<g id="a_Node000006"><a xlink:title=" ">
<polygon fill="#e0e0e0" stroke="#999999" points="283.38,-129.75 253.88,-129.75 253.88,-110.5 283.38,-110.5 283.38,-129.75"/>
<text text-anchor="middle" x="268.62" y="-116.25" font-family="Helvetica,sans-Serif" font-size="10.00">set</text>
</a>
</g>
</g>
<!-- Node1&#45;&gt;Node6 -->
<g id="edge5_Node000001_Node000006" class="edge">
<title>Node1&#45;&gt;Node6</title>
<g id="a_edge5_Node000001_Node000006"><a xlink:title=" ">
<path fill="none" stroke="#63b8ff" d="M454.11,-165.42C412.78,-158.03 354.04,-146.46 294.49,-129.95"/>
<polygon fill="#63b8ff" stroke="#63b8ff" points="295.79,-126.68 285.21,-127.34 293.89,-133.42 295.79,-126.68"/>
</a>
</g>
</g>
<!-- Node7 -->
<g id="Node000007" class="node">
<title>Node7</title>
<g id="a_Node000007"><a xlink:title=" ">
<polygon fill="#e0e0e0" stroke="#999999" points="336,-129.75 301.25,-129.75 301.25,-110.5 336,-110.5 336,-129.75"/>
<text text-anchor="middle" x="318.62" y="-116.25" font-family="Helvetica,sans-Serif" font-size="10.00">map</text>
</a>
</g>
</g>
<!-- Node1&#45;&gt;Node7 -->
<g id="edge6_Node000001_Node000007" class="edge">
<title>Node1&#45;&gt;Node7</title>
<g id="a_edge6_Node000001_Node000007"><a xlink:title=" ">
<path fill="none" stroke="#63b8ff" d="M472.18,-165.25C441.38,-157.2 395.34,-144.85 347.39,-130.48"/>
<polygon fill="#63b8ff" stroke="#63b8ff" points="348.52,-127.17 337.94,-127.63 346.5,-133.87 348.52,-127.17"/>
</a>
</g>
</g>
<!-- Node8 -->
<g id="Node000008" class="node">
<title>Node8</title>
<g id="a_Node000008"><a xlink:title=" ">
<polygon fill="#e0e0e0" stroke="#999999" points="407.38,-129.75 353.88,-129.75 353.88,-110.5 407.38,-110.5 407.38,-129.75"/>
<text text-anchor="middle" x="380.62" y="-116.25" font-family="Helvetica,sans-Serif" font-size="10.00">iostream</text>
</a>
</g>
</g>
<!-- Node1&#45;&gt;Node8 -->
<g id="edge7_Node000001_Node000008" class="edge">
<title>Node1&#45;&gt;Node8</title>
<g id="a_edge7_Node000001_Node000008"><a xlink:title=" ">
<path fill="none" stroke="#63b8ff" d="M486.08,-165.34C466.01,-156.93 435.82,-144.27 412.88,-134.65"/>
<polygon fill="#63b8ff" stroke="#63b8ff" points="414.25,-131.43 403.67,-130.79 411.54,-137.88 414.25,-131.43"/>
</a>
</g>
</g>
<!-- Node9 -->
<g id="Node000009" class="node">
<title>Node9</title>
<g id="a_Node000009"><a xlink:title=" ">
<polygon fill="#e0e0e0" stroke="#999999" points="464.25,-129.75 425,-129.75 425,-110.5 464.25,-110.5 464.25,-129.75"/>
<text text-anchor="middle" x="444.62" y="-116.25" font-family="Helvetica,sans-Serif" font-size="10.00">utility</text>
</a>
</g>
</g>
<!-- Node1&#45;&gt;Node9 -->
<g id="edge8_Node000001_Node000009" class="edge">
<title>Node1&#45;&gt;Node9</title>
<g id="a_edge8_Node000001_Node000009"><a xlink:title=" ">
<path fill="none" stroke="#63b8ff" d="M496.94,-165.34C487.92,-157.72 474.79,-146.62 463.94,-137.45"/>
<polygon fill="#63b8ff" stroke="#63b8ff" points="466.21,-134.78 456.31,-131 461.69,-140.13 466.21,-134.78"/>
</a>
</g>
</g>
<!-- Node10 -->
<g id="Node000010" class="node">
<title>Node10</title>
<g id="a_Node000010"><a xlink:title=" ">
<polygon fill="#e0e0e0" stroke="#999999" points="533.25,-129.75 482,-129.75 482,-110.5 533.25,-110.5 533.25,-129.75"/>
<text text-anchor="middle" x="507.62" y="-116.25" font-family="Helvetica,sans-Serif" font-size="10.00">memory</text>
</a>
</g>
</g>
<!-- Node1&#45;&gt;Node10 -->
<g id="edge9_Node000001_Node000010" class="edge">
<title>Node1&#45;&gt;Node10</title>
<g id="a_edge9_Node000001_Node000010"><a xlink:title=" ">
<path fill="none" stroke="#63b8ff" d="M507.62,-165.58C507.62,-159.07 507.62,-149.92 507.62,-141.62"/>
<polygon fill="#63b8ff" stroke="#63b8ff" points="511.13,-141.62 507.63,-131.62 504.13,-141.62 511.13,-141.62"/>
</a>
</g>
</g>
<!-- Node11 -->
<g id="Node000011" class="node">
<title>Node11</title>
<g id="a_Node000011"><a xlink:title=" ">
<polygon fill="#e0e0e0" stroke="#999999" points="607.5,-129.75 551.75,-129.75 551.75,-110.5 607.5,-110.5 607.5,-129.75"/>
<text text-anchor="middle" x="579.62" y="-116.25" font-family="Helvetica,sans-Serif" font-size="10.00">algorithm</text>
</a>
</g>
</g>
<!-- Node1&#45;&gt;Node11 -->
<g id="edge10_Node000001_Node000011" class="edge">
<title>Node1&#45;&gt;Node11</title>
<g id="a_edge10_Node000001_Node000011"><a xlink:title=" ">
<path fill="none" stroke="#63b8ff" d="M519.84,-165.34C530.45,-157.49 546.06,-145.95 558.67,-136.62"/>
<polygon fill="#63b8ff" stroke="#63b8ff" points="560.42,-139.69 566.37,-130.92 556.25,-134.06 560.42,-139.69"/>
</a>
</g>
</g>
<!-- Node12 -->
<g id="Node000012" class="node">
<title>Node12</title>
<g id="a_Node000012"><a xlink:title=" ">
<polygon fill="#e0e0e0" stroke="#999999" points="675.88,-129.75 625.38,-129.75 625.38,-110.5 675.88,-110.5 675.88,-129.75"/>
<text text-anchor="middle" x="650.62" y="-116.25" font-family="Helvetica,sans-Serif" font-size="10.00">numeric</text>
</a>
</g>
</g>
<!-- Node1&#45;&gt;Node12 -->
<g id="edge11_Node000001_Node000012" class="edge">
<title>Node1&#45;&gt;Node12</title>
<g id="a_edge11_Node000001_Node000012"><a xlink:title=" ">
<path fill="none" stroke="#63b8ff" d="M531.88,-165.34C554.89,-156.77 589.72,-143.81 615.71,-134.13"/>
<polygon fill="#63b8ff" stroke="#63b8ff" points="616.68,-137.5 624.83,-130.73 614.24,-130.94 616.68,-137.5"/>
</a>
</g>
</g>
<!-- Node13 -->
<g id="Node000013" class="node">
<title>Node13</title>
<g id="a_Node000013"><a xlink:title=" ">
<polygon fill="#e0e0e0" stroke="#999999" points="765.75,-129.75 693.5,-129.75 693.5,-110.5 765.75,-110.5 765.75,-129.75"/>
<text text-anchor="middle" x="729.62" y="-116.25" font-family="Helvetica,sans-Serif" font-size="10.00">Eigen/Dense</text>
</a>
</g>
</g>
<!-- Node1&#45;&gt;Node13 -->
<g id="edge12_Node000001_Node000013" class="edge">
<title>Node1&#45;&gt;Node13</title>
<g id="a_edge12_Node000001_Node000013"><a xlink:title=" ">
<path fill="none" stroke="#63b8ff" d="M545.54,-165.28C583.34,-156.21 641.52,-142.26 682.33,-132.47"/>
<polygon fill="#63b8ff" stroke="#63b8ff" points="682.96,-135.92 691.87,-130.18 681.33,-129.11 682.96,-135.92"/>
</a>
</g>
</g>
<!-- Node14 -->
<g id="Node000014" class="node">
<title>Node14</title>
<g id="a_Node000014"><a xlink:title=" ">
<polygon fill="#e0e0e0" stroke="#999999" points="869.88,-129.75 783.38,-129.75 783.38,-110.5 869.88,-110.5 869.88,-129.75"/>
<text text-anchor="middle" x="826.62" y="-116.25" font-family="Helvetica,sans-Serif" font-size="10.00">Eigen/Geometry</text>
</a>
</g>
</g>
<!-- Node1&#45;&gt;Node14 -->
<g id="edge13_Node000001_Node000014" class="edge">
<title>Node1&#45;&gt;Node14</title>
<g id="a_edge13_Node000001_Node000014"><a xlink:title=" ">
<path fill="none" stroke="#63b8ff" d="M561.38,-165.4C619.81,-155.65 712.7,-140.14 771.61,-130.31"/>
<polygon fill="#63b8ff" stroke="#63b8ff" points="772.14,-133.77 781.43,-128.67 770.99,-126.86 772.14,-133.77"/>
</a>
</g>
</g>
<!-- Node15 -->
<g id="Node000015" class="node">
<title>Node15</title>
<g id="a_Node000015"><a xlink:href="_box_8hxx.html" target="_top" xlink:title=" ">
<polygon fill="white" stroke="#666666" points="1105.88,-19.25 1007.38,-19.25 1007.38,0 1105.88,0 1105.88,-19.25"/>
<text text-anchor="middle" x="1056.62" y="-5.75" font-family="Helvetica,sans-Serif" font-size="10.00">AABBtree/Box.hxx</text>
</a>
</g>
</g>
<!-- Node1&#45;&gt;Node15 -->
<g id="edge14_Node000001_Node000015" class="edge">
<title>Node1&#45;&gt;Node15</title>
<g id="a_edge14_Node000001_Node000015"><a xlink:title=" ">
<path fill="none" stroke="#63b8ff" d="M561.2,-171.01C649.54,-164.96 821.67,-150.85 878.62,-129.75 912.31,-117.27 996.52,-55.79 1035.82,-26.37"/>
<polygon fill="#63b8ff" stroke="#63b8ff" points="1037.9,-29.18 1043.79,-20.38 1033.69,-23.59 1037.9,-29.18"/>
</a>
</g>
</g>
<!-- Node16 -->
<g id="Node000016" class="node">
<title>Node16</title>
<g id="a_Node000016"><a xlink:href="_ray_8hxx.html" target="_top" xlink:title=" ">
<polygon fill="white" stroke="#666666" points="1023.5,-129.75 925.75,-129.75 925.75,-110.5 1023.5,-110.5 1023.5,-129.75"/>
<text text-anchor="middle" x="974.62" y="-116.25" font-family="Helvetica,sans-Serif" font-size="10.00">AABBtree/Ray.hxx</text>
</a>
</g>
</g>
<!-- Node1&#45;&gt;Node16 -->
<g id="edge15_Node000001_Node000016" class="edge">
<title>Node1&#45;&gt;Node16</title>
<g id="a_edge15_Node000001_Node000016"><a xlink:title=" ">
<path fill="none" stroke="#63b8ff" d="M561.26,-168.9C638.7,-160.89 786.27,-145.25 911.62,-129.75 912.47,-129.65 913.32,-129.54 914.17,-129.43"/>
<polygon fill="#63b8ff" stroke="#63b8ff" points="914.49,-132.92 923.96,-128.17 913.59,-125.98 914.49,-132.92"/>
</a>
</g>
</g>
<!-- Node17 -->
<g id="Node000017" class="node">
<title>Node17</title>
<g id="a_Node000017"><a xlink:href="_tree_8hxx.html" target="_top" xlink:title=" ">
<polygon fill="white" stroke="#666666" points="1107,-74.5 1006.25,-74.5 1006.25,-55.25 1107,-55.25 1107,-74.5"/>
<text text-anchor="middle" x="1056.62" y="-61" font-family="Helvetica,sans-Serif" font-size="10.00">AABBtree/Tree.hxx</text>
</a>
</g>
</g>
<!-- Node1&#45;&gt;Node17 -->
<g id="edge16_Node000001_Node000017" class="edge">
<title>Node1&#45;&gt;Node17</title>
<g id="a_edge16_Node000001_Node000017"><a xlink:title=" ">
<path fill="none" stroke="#63b8ff" d="M561.06,-173.03C687.18,-169.41 995.61,-157.77 1032.62,-129.75 1046.21,-119.46 1052.11,-100.57 1054.67,-85.98"/>
<polygon fill="#63b8ff" stroke="#63b8ff" points="1058.13,-86.48 1055.97,-76.11 1051.19,-85.57 1058.13,-86.48"/>
</a>
</g>
</g>
<!-- Node18 -->
<g id="Node000018" class="node">
<title>Node18</title>
<g id="a_Node000018"><a xlink:href="_non_recursive_8hxx.html" target="_top" xlink:title=" ">
<polygon fill="white" stroke="#666666" points="1223.38,-129.75 1079.88,-129.75 1079.88,-110.5 1223.38,-110.5 1223.38,-129.75"/>
<text text-anchor="middle" x="1151.62" y="-116.25" font-family="Helvetica,sans-Serif" font-size="10.00">AABBtree/NonRecursive.hxx</text>
</a>
</g>
</g>
<!-- Node1&#45;&gt;Node18 -->
<g id="edge18_Node000001_Node000018" class="edge">
<title>Node1&#45;&gt;Node18</title>
<g id="a_edge18_Node000001_Node000018"><a xlink:title=" ">
<path fill="none" stroke="#63b8ff" d="M561.13,-170.46C660.56,-163.1 880.51,-146.43 1065.62,-129.75 1066.64,-129.66 1067.66,-129.57 1068.68,-129.47"/>
<polygon fill="#63b8ff" stroke="#63b8ff" points="1068.7,-132.99 1078.33,-128.57 1068.05,-126.02 1068.7,-132.99"/>
</a>
</g>
</g>
<!-- Node17&#45;&gt;Node15 -->
<g id="edge17_Node000017_Node000015" class="edge">
<title>Node17&#45;&gt;Node15</title>
<g id="a_edge17_Node000017_Node000015"><a xlink:title=" ">
<path fill="none" stroke="#63b8ff" d="M1056.62,-55.08C1056.62,-48.57 1056.62,-39.42 1056.62,-31.12"/>
<polygon fill="#63b8ff" stroke="#63b8ff" points="1060.13,-31.12 1056.63,-21.12 1053.13,-31.12 1060.13,-31.12"/>
</a>
</g>
</g>
<!-- Node18&#45;&gt;Node15 -->
<g id="edge19_Node000018_Node000015" class="edge">
<title>Node18&#45;&gt;Node15</title>
<g id="a_edge19_Node000018_Node000015"><a xlink:title=" ">
<path fill="none" stroke="#63b8ff" d="M1147.98,-110.14C1142.38,-97.07 1130.7,-72.5 1115.62,-55.25 1105.75,-43.96 1092.61,-33.68 1081.23,-25.84"/>
<polygon fill="#63b8ff" stroke="#63b8ff" points="1083.35,-23.05 1073.08,-20.45 1079.49,-28.89 1083.35,-23.05"/>
</a>
</g>
</g>
<!-- Node18&#45;&gt;Node17 -->
<g id="edge20_Node000018_Node000017" class="edge">
<title>Node18&#45;&gt;Node17</title>
<g id="a_edge20_Node000018_Node000017"><a xlink:title=" ">
<path fill="none" stroke="#63b8ff" d="M1135.51,-110.09C1121.04,-101.98 1099.55,-89.93 1082.64,-80.46"/>
<polygon fill="#63b8ff" stroke="#63b8ff" points="1084.57,-77.53 1074.14,-75.69 1081.15,-83.64 1084.57,-77.53"/>
</a>
</g>
</g>
</g>
</svg>
