<?xml version="1.0" encoding="UTF-8" standalone="no"?>
<!DOCTYPE svg PUBLIC "-//W3C//DTD SVG 1.1//EN"
 "http://www.w3.org/Graphics/SVG/1.1/DTD/svg11.dtd">
<!-- Generated by graphviz version 14.1.4 (20260321.0153)
 -->
<!-- Title: include/AABBtree.hh Pages: 1 -->
<svg width="1270pt" height="193pt"
 viewBox="0.00 0.00 1270.00 193.00" xmlns="http://www.w3.org/2000/svg" xmlns:xlink="http://www.w3.org/1999/xlink">
<g id="graph0" class="graph" transform="scale(1 1) rotate(0) translate(4 189)">
<title>include/AABBtree.hh</title>
<!-- Node1 -->
<g id="Node000001" class="node">
<title>Node1</title>
<g id="a_Node000001"><a xlink:title=" ">
<polygon fill="#999999" stroke="#666666" points="664.25,-185 557.5,-185 557.5,-165.75 664.25,-165.75 664.25,-185"/>
<text xml:space="preserve" text-anchor="middle" x="610.88" y="-171.5" font-family="Helvetica,sans-Serif" font-size="10.00">include/AABBtree.hh</text>
</a>
</g>
</g>
<!-- Node2 -->
<g id="Node000002" class="node">
<title>Node2</title>
<g id="a_Node000002"><a xlink:title=" ">
<polygon fill="#e0e0e0" stroke="#999999" points="55.75,-129.75 0,-129.75 0,-110.5 55.75,-110.5 55.75,-129.75"/>
<text xml:space="preserve" text-anchor="middle" x="27.88" y="-116.25" font-family="Helvetica,sans-Serif" font-size="10.00">algorithm</text>
</a>
</g>
</g>
<!-- Node1&#45;&gt;Node2 -->
<g id="edge1_Node000001_Node000002" class="edge">
<title>Node1&#45;&gt;Node2</title>
<g id="a_edge1_Node000001_Node000002"><a xlink:title=" ">
<path fill="none" stroke="#63b8ff" d="M557.09,-172.61C460.79,-168.88 252.43,-158.21 67.38,-129.91"/>
<polygon fill="#63b8ff" stroke="#63b8ff" points="67.99,-126.46 57.57,-128.38 66.91,-133.38 67.99,-126.46"/>
</a>
</g>
</g>
<!-- Node3 -->
<g id="Node000003" class="node">
<title>Node3</title>
<g id="a_Node000003"><a xlink:title=" ">
<polygon fill="#e0e0e0" stroke="#999999" points="111.75,-129.75 74,-129.75 74,-110.5 111.75,-110.5 111.75,-129.75"/>
<text xml:space="preserve" text-anchor="middle" x="92.88" y="-116.25" font-family="Helvetica,sans-Serif" font-size="10.00">array</text>
</a>
</g>
</g>
<!-- Node1&#45;&gt;Node3 -->
<g id="edge2_Node000001_Node000003" class="edge">
<title>Node1&#45;&gt;Node3</title>
<g id="a_edge2_Node000001_Node000003"><a xlink:title=" ">
<path fill="none" stroke="#63b8ff" d="M557.06,-173.12C468.34,-170.27 285.82,-161.06 123.2,-129.79"/>
<polygon fill="#63b8ff" stroke="#63b8ff" points="123.99,-126.38 113.51,-127.89 122.65,-133.25 123.99,-126.38"/>
</a>
</g>
</g>
<!-- Node4 -->
<g id="Node000004" class="node">
<title>Node4</title>
<g id="a_Node000004"><a xlink:title=" ">
<polygon fill="#e0e0e0" stroke="#999999" points="187.88,-129.75 129.88,-129.75 129.88,-110.5 187.88,-110.5 187.88,-129.75"/>
<text xml:space="preserve" text-anchor="middle" x="158.88" y="-116.25" font-family="Helvetica,sans-Serif" font-size="10.00">functional</text>
</a>
</g>
</g>
<!-- Node1&#45;&gt;Node4 -->
<g id="edge3_Node000001_Node000004" class="edge">
<title>Node1&#45;&gt;Node4</title>
<g id="a_edge3_Node000001_Node000004"><a xlink:title=" ">
<path fill="none" stroke="#63b8ff" d="M557.01,-170.57C479.93,-164.69 333.51,-151.89 199.53,-130.02"/>
<polygon fill="#63b8ff" stroke="#63b8ff" points="200.2,-126.58 189.76,-128.4 199.05,-133.48 200.2,-126.58"/>
</a>
</g>
</g>
<!-- Node5 -->
<g id="Node000005" class="node">
<title>Node5</title>
<g id="a_Node000005"><a xlink:title=" ">
<polygon fill="#e0e0e0" stroke="#999999" points="259.62,-129.75 206.12,-129.75 206.12,-110.5 259.62,-110.5 259.62,-129.75"/>
<text xml:space="preserve" text-anchor="middle" x="232.88" y="-116.25" font-family="Helvetica,sans-Serif" font-size="10.00">iostream</text>
</a>
</g>
</g>
<!-- Node1&#45;&gt;Node5 -->
<g id="edge4_Node000001_Node000005" class="edge">
<title>Node1&#45;&gt;Node5</title>
<g id="a_edge4_Node000001_Node000005"><a xlink:title=" ">
<path fill="none" stroke="#63b8ff" d="M557.29,-169.15C491.97,-162.39 378.04,-149.34 270.94,-129.95"/>
<polygon fill="#63b8ff" stroke="#63b8ff" points="271.89,-126.57 261.43,-128.2 270.63,-133.45 271.89,-126.57"/>
</a>
</g>
</g>
<!-- Node6 -->
<g id="Node000006" class="node">
<title>Node6</title>
<g id="a_Node000006"><a xlink:title=" ">
<polygon fill="#e0e0e0" stroke="#999999" points="323.88,-129.75 277.88,-129.75 277.88,-110.5 323.88,-110.5 323.88,-129.75"/>
<text xml:space="preserve" text-anchor="middle" x="300.88" y="-116.25" font-family="Helvetica,sans-Serif" font-size="10.00">iterator</text>
</a>
</g>
</g>
<!-- Node1&#45;&gt;Node6 -->
<g id="edge5_Node000001_Node000006" class="edge">
<title>Node1&#45;&gt;Node6</title>
<g id="a_edge5_Node000001_Node000006"><a xlink:title=" ">
<path fill="none" stroke="#63b8ff" d="M557.01,-167.42C503.2,-160.1 417.91,-147.47 335.33,-130.09"/>
<polygon fill="#63b8ff" stroke="#63b8ff" points="336.22,-126.7 325.71,-128.04 334.75,-133.55 336.22,-126.7"/>
</a>
</g>
</g>
<!-- Node7 -->
<g id="Node000007" class="node">
<title>Node7</title>
<g id="a_Node000007"><a xlink:title=" ">
<polygon fill="#e0e0e0" stroke="#999999" points="381.5,-129.75 342.25,-129.75 342.25,-110.5 381.5,-110.5 381.5,-129.75"/>
<text xml:space="preserve" text-anchor="middle" x="361.88" y="-116.25" font-family="Helvetica,sans-Serif" font-size="10.00">limits</text>
</a>
</g>
</g>
<!-- Node1&#45;&gt;Node7 -->
<g id="edge6_Node000001_Node000007" class="edge">
<title>Node1&#45;&gt;Node7</title>
<g id="a_edge6_Node000001_Node000007"><a xlink:title=" ">
<path fill="none" stroke="#63b8ff" d="M559.46,-165.29C517.14,-157.5 455.37,-145.46 392.67,-130.01"/>
<polygon fill="#63b8ff" stroke="#63b8ff" points="393.8,-126.69 383.25,-127.66 392.1,-133.48 393.8,-126.69"/>
</a>
</g>
</g>
<!-- Node8 -->
<g id="Node000008" class="node">
<title>Node8</title>
<g id="a_Node000008"><a xlink:title=" ">
<polygon fill="#e0e0e0" stroke="#999999" points="434.25,-129.75 399.5,-129.75 399.5,-110.5 434.25,-110.5 434.25,-129.75"/>
<text xml:space="preserve" text-anchor="middle" x="416.88" y="-116.25" font-family="Helvetica,sans-Serif" font-size="10.00">map</text>
</a>
</g>
</g>
<!-- Node1&#45;&gt;Node8 -->
<g id="edge7_Node000001_Node000008" class="edge">
<title>Node1&#45;&gt;Node8</title>
<g id="a_edge7_Node000001_Node000008"><a xlink:title=" ">
<path fill="none" stroke="#63b8ff" d="M573.99,-165.26C542.17,-157.25 494.74,-144.95 445.58,-130.44"/>
<polygon fill="#63b8ff" stroke="#63b8ff" points="446.77,-127.14 436.18,-127.64 444.77,-133.85 446.77,-127.14"/>
</a>
</g>
</g>
<!-- Node9 -->
<g id="Node000009" class="node">
<title>Node9</title>
<g id="a_Node000009"><a xlink:title=" ">
<polygon fill="#e0e0e0" stroke="#999999" points="503.5,-129.75 452.25,-129.75 452.25,-110.5 503.5,-110.5 503.5,-129.75"/>
<text xml:space="preserve" text-anchor="middle" x="477.88" y="-116.25" font-family="Helvetica,sans-Serif" font-size="10.00">memory</text>
</a>
</g>
</g>
<!-- Node1&#45;&gt;Node9 -->
<g id="edge8_Node000001_Node000009" class="edge">
<title>Node1&#45;&gt;Node9</title>
<g id="a_edge8_Node000001_Node000009"><a xlink:title=" ">
<path fill="none" stroke="#63b8ff" d="M588.31,-165.34C567.1,-156.85 535.1,-144.04 511,-134.39"/>
<polygon fill="#63b8ff" stroke="#63b8ff" points="512.54,-131.23 501.95,-130.77 509.94,-137.73 512.54,-131.23"/>
</a>
</g>
</g>
<!-- Node10 -->
<g id="Node000010" class="node">
<title>Node10</title>
<g id="a_Node000010"><a xlink:title=" ">
<polygon fill="#e0e0e0" stroke="#999999" points="572.12,-129.75 521.62,-129.75 521.62,-110.5 572.12,-110.5 572.12,-129.75"/>
<text xml:space="preserve" text-anchor="middle" x="546.88" y="-116.25" font-family="Helvetica,sans-Serif" font-size="10.00">numeric</text>
</a>
</g>
</g>
<!-- Node1&#45;&gt;Node10 -->
<g id="edge9_Node000001_Node000010" class="edge">
<title>Node1&#45;&gt;Node10</title>
<g id="a_edge9_Node000001_Node000010"><a xlink:title=" ">
<path fill="none" stroke="#63b8ff" d="M600.02,-165.34C590.77,-157.65 577.25,-146.4 566.17,-137.18"/>
<polygon fill="#63b8ff" stroke="#63b8ff" points="568.66,-134.7 558.73,-130.99 564.18,-140.08 568.66,-134.7"/>
</a>
</g>
</g>
<!-- Node11 -->
<g id="Node000011" class="node">
<title>Node11</title>
<g id="a_Node000011"><a xlink:title=" ">
<polygon fill="#e0e0e0" stroke="#999999" points="632,-129.75 589.75,-129.75 589.75,-110.5 632,-110.5 632,-129.75"/>
<text xml:space="preserve" text-anchor="middle" x="610.88" y="-116.25" font-family="Helvetica,sans-Serif" font-size="10.00">queue</text>
</a>
</g>
</g>
<!-- Node1&#45;&gt;Node11 -->
<g id="edge10_Node000001_Node000011" class="edge">
<title>Node1&#45;&gt;Node11</title>
<g id="a_edge10_Node000001_Node000011"><a xlink:title=" ">
<path fill="none" stroke="#63b8ff" d="M610.88,-165.58C610.88,-159.07 610.88,-149.92 610.88,-141.62"/>
<polygon fill="#63b8ff" stroke="#63b8ff" points="614.38,-141.62 610.88,-131.62 607.38,-141.62 614.38,-141.62"/>
</a>
</g>
</g>
<!-- Node12 -->
<g id="Node000012" class="node">
<title>Node12</title>
<g id="a_Node000012"><a xlink:title=" ">
<polygon fill="#e0e0e0" stroke="#999999" points="679.62,-129.75 650.12,-129.75 650.12,-110.5 679.62,-110.5 679.62,-129.75"/>
<text xml:space="preserve" text-anchor="middle" x="664.88" y="-116.25" font-family="Helvetica,sans-Serif" font-size="10.00">set</text>
</a>
</g>
</g>
<!-- Node1&#45;&gt;Node12 -->
<g id="edge11_Node000001_Node000012" class="edge">
<title>Node1&#45;&gt;Node12</title>
<g id="a_edge11_Node000001_Node000012"><a xlink:title=" ">
<path fill="none" stroke="#63b8ff" d="M619.79,-165.58C627.33,-158.15 638.34,-147.29 647.6,-138.16"/>
<polygon fill="#63b8ff" stroke="#63b8ff" points="650.02,-140.69 654.69,-131.17 645.11,-135.7 650.02,-140.69"/>
</a>
</g>
</g>
<!-- Node13 -->
<g id="Node000013" class="node">
<title>Node13</title>
<g id="a_Node000013"><a xlink:title=" ">
<polygon fill="#e0e0e0" stroke="#999999" points="759.75,-129.75 698,-129.75 698,-110.5 759.75,-110.5 759.75,-129.75"/>
<text xml:space="preserve" text-anchor="middle" x="728.88" y="-116.25" font-family="Helvetica,sans-Serif" font-size="10.00">type_traits</text>
</a>
</g>
</g>
<!-- Node1&#45;&gt;Node13 -->
<g id="edge12_Node000001_Node000013" class="edge">
<title>Node1&#45;&gt;Node13</title>
<g id="a_edge12_Node000001_Node000013"><a xlink:title=" ">
<path fill="none" stroke="#63b8ff" d="M630.89,-165.34C649.37,-157 677.08,-144.5 698.32,-134.91"/>
<polygon fill="#63b8ff" stroke="#63b8ff" points="699.7,-138.13 707.38,-130.83 696.83,-131.75 699.7,-138.13"/>
</a>
</g>
</g>
<!-- Node14 -->
<g id="Node000014" class="node">
<title>Node14</title>
<g id="a_Node000014"><a xlink:title=" ">
<polygon fill="#e0e0e0" stroke="#999999" points="817.5,-129.75 778.25,-129.75 778.25,-110.5 817.5,-110.5 817.5,-129.75"/>
<text xml:space="preserve" text-anchor="middle" x="797.88" y="-116.25" font-family="Helvetica,sans-Serif" font-size="10.00">utility</text>
</a>
</g>
</g>
<!-- Node1&#45;&gt;Node14 -->
<g id="edge13_Node000001_Node000014" class="edge">
<title>Node1&#45;&gt;Node14</title>
<g id="a_edge13_Node000001_Node000014"><a xlink:title=" ">
<path fill="none" stroke="#63b8ff" d="M643.59,-165.28C673.32,-156.98 718.67,-144.24 766.92,-130.29"/>
<polygon fill="#63b8ff" stroke="#63b8ff" points="767.83,-133.67 776.46,-127.52 765.88,-126.94 767.83,-133.67"/>
</a>
</g>
</g>
<!-- Node15 -->
<g id="Node000015" class="node">
<title>Node15</title>
<g id="a_Node000015"><a xlink:title=" ">
<polygon fill="#e0e0e0" stroke="#999999" points="878.38,-129.75 835.38,-129.75 835.38,-110.5 878.38,-110.5 878.38,-129.75"/>
<text xml:space="preserve" text-anchor="middle" x="856.88" y="-116.25" font-family="Helvetica,sans-Serif" font-size="10.00">vector</text>
</a>
</g>
</g>
<!-- Node1&#45;&gt;Node15 -->
<g id="edge14_Node000001_Node000015" class="edge">
<title>Node1&#45;&gt;Node15</title>
<g id="a_edge14_Node000001_Node000015"><a xlink:title=" ">
<path fill="none" stroke="#63b8ff" d="M660.01,-165.33C701.46,-157.45 762.58,-145.26 823.92,-130.35"/>
<polygon fill="#63b8ff" stroke="#63b8ff" points="824.63,-133.78 833.5,-127.99 822.96,-126.98 824.63,-133.78"/>
</a>
</g>
</g>
<!-- Node16 -->
<g id="Node000016" class="node">
<title>Node16</title>
<g id="a_Node000016"><a xlink:title=" ">
<polygon fill="#e0e0e0" stroke="#999999" points="969,-129.75 896.75,-129.75 896.75,-110.5 969,-110.5 969,-129.75"/>
<text xml:space="preserve" text-anchor="middle" x="932.88" y="-116.25" font-family="Helvetica,sans-Serif" font-size="10.00">Eigen/Dense</text>
</a>
</g>
</g>
<!-- Node1&#45;&gt;Node16 -->
<g id="edge15_Node000001_Node000016" class="edge">
<title>Node1&#45;&gt;Node16</title>
<g id="a_edge15_Node000001_Node000016"><a xlink:title=" ">
<path fill="none" stroke="#63b8ff" d="M664.57,-166.21C718.04,-157.97 802.73,-144.62 885.42,-130.14"/>
<polygon fill="#63b8ff" stroke="#63b8ff" points="885.81,-133.63 895.05,-128.45 884.6,-126.73 885.81,-133.63"/>
</a>
</g>
</g>
<!-- Node17 -->
<g id="Node000017" class="node">
<title>Node17</title>
<g id="a_Node000017"><a xlink:title=" ">
<polygon fill="#e0e0e0" stroke="#999999" points="1073.12,-129.75 986.62,-129.75 986.62,-110.5 1073.12,-110.5 1073.12,-129.75"/>
<text xml:space="preserve" text-anchor="middle" x="1029.88" y="-116.25" font-family="Helvetica,sans-Serif" font-size="10.00">Eigen/Geometry</text>
</a>
</g>
</g>
<!-- Node1&#45;&gt;Node17 -->
<g id="edge16_Node000001_Node000017" class="edge">
<title>Node1&#45;&gt;Node17</title>
<g id="a_edge16_Node000001_Node000017"><a xlink:title=" ">
<path fill="none" stroke="#63b8ff" d="M664.46,-168.6C733.78,-160.96 858.58,-146.65 974.97,-130.12"/>
<polygon fill="#63b8ff" stroke="#63b8ff" points="975.3,-133.6 984.71,-128.72 974.31,-126.68 975.3,-133.6"/>
</a>
</g>
</g>
<!-- Node18 -->
<g id="Node000018" class="node">
<title>Node18</title>
<g id="a_Node000018"><a xlink:href="_box_8hxx.html" target="_top" xlink:title=" ">
<polygon fill="white" stroke="#666666" points="1228.12,-74.5 1129.62,-74.5 1129.62,-55.25 1228.12,-55.25 1228.12,-74.5"/>
<text xml:space="preserve" text-anchor="middle" x="1178.88" y="-61" font-family="Helvetica,sans-Serif" font-size="10.00">AABBtree/Box.hxx</text>
</a>
</g>
</g>
<!-- Node1&#45;&gt;Node18 -->
<g id="edge17_Node000001_Node000018" class="edge">
<title>Node1&#45;&gt;Node18</title>
<g id="a_edge17_Node000001_Node000018"><a xlink:title=" ">
<path fill="none" stroke="#63b8ff" d="M664.67,-172.54C771.39,-168.37 1006.14,-156.4 1081.88,-129.75 1097.77,-124.16 1134.25,-98.64 1157.67,-81.6"/>
<polygon fill="#63b8ff" stroke="#63b8ff" points="1159.59,-84.53 1165.58,-75.8 1155.45,-78.89 1159.59,-84.53"/>
</a>
</g>
</g>
<!-- Node19 -->
<g id="Node000019" class="node">
<title>Node19</title>
<g id="a_Node000019"><a xlink:href="_ray_8hxx.html" target="_top" xlink:title=" ">
<polygon fill="white" stroke="#666666" points="1227.75,-19.25 1130,-19.25 1130,0 1227.75,0 1227.75,-19.25"/>
<text xml:space="preserve" text-anchor="middle" x="1178.88" y="-5.75" font-family="Helvetica,sans-Serif" font-size="10.00">AABBtree/Ray.hxx</text>
</a>
</g>
</g>
<!-- Node1&#45;&gt;Node19 -->
<g id="edge20_Node000001_Node000019" class="edge">
<title>Node1&#45;&gt;Node19</title>
<g id="a_edge20_Node000001_Node000019"><a xlink:title=" ">
<path fill="none" stroke="#63b8ff" d="M664.6,-174.75C812.24,-175.23 1215.91,-172.58 1255.88,-129.75 1271.13,-113.4 1255.07,-80.58 1236.88,-55.25 1228.39,-43.44 1215.89,-33.27 1204.67,-25.63"/>
<polygon fill="#63b8ff" stroke="#63b8ff" points="1206.85,-22.87 1196.55,-20.42 1203.07,-28.76 1206.85,-22.87"/>
</a>
</g>
</g>
<!-- Node20 -->
<g id="Node000020" class="node">
<title>Node20</title>
<g id="a_Node000020"><a xlink:href="_tree_8hxx.html" target="_top" xlink:title=" ">
<polygon fill="white" stroke="#666666" points="1229.25,-129.75 1128.5,-129.75 1128.5,-110.5 1229.25,-110.5 1229.25,-129.75"/>
<text xml:space="preserve" text-anchor="middle" x="1178.88" y="-116.25" font-family="Helvetica,sans-Serif" font-size="10.00">AABBtree/Tree.hxx</text>
</a>
</g>
</g>
<!-- Node1&#45;&gt;Node20 -->
<g id="edge21_Node000001_Node000020" class="edge">
<title>Node1&#45;&gt;Node20</title>
<g id="a_edge21_Node000001_Node000020"><a xlink:title=" ">
<path fill="none" stroke="#63b8ff" d="M664.66,-170.42C756.91,-163.46 951.19,-148.02 1114.88,-129.75 1115.55,-129.67 1116.24,-129.6 1116.92,-129.52"/>
<polygon fill="#63b8ff" stroke="#63b8ff" points="1117.23,-133.01 1126.74,-128.34 1116.4,-126.06 1117.23,-133.01"/>
</a>
</g>
</g>
<!-- Node18&#45;&gt;Node19 -->
<g id="edge18_Node000018_Node000019" class="edge">
<title>Node18&#45;&gt;Node19</title>
<g id="a_edge18_Node000018_Node000019"><a xlink:title=" ">
<path fill="none" stroke="#63b8ff" d="M1173.71,-55.08C1172.3,-48.49 1171.83,-39.21 1172.3,-30.82"/>
<polygon fill="#63b8ff" stroke="#63b8ff" points="1175.75,-31.46 1173.49,-21.11 1168.8,-30.62 1175.75,-31.46"/>
</a>
</g>
</g>
<!-- Node19&#45;&gt;Node18 -->
<g id="edge19_Node000019_Node000018" class="edge">
<title>Node19&#45;&gt;Node18</title>
<g id="a_edge19_Node000019_Node000018"><a xlink:title=" ">
<path fill="none" stroke="#63b8ff" d="M1184.08,-19.61C1185.47,-26.25 1185.92,-35.55 1185.43,-43.92"/>
<polygon fill="#63b8ff" stroke="#63b8ff" points="1181.99,-43.22 1184.23,-53.58 1188.94,-44.09 1181.99,-43.22"/>
</a>
</g>
</g>
<!-- Node20&#45;&gt;Node18 -->
<g id="edge22_Node000020_Node000018" class="edge">
<title>Node20&#45;&gt;Node18</title>
<g id="a_edge22_Node000020_Node000018"><a xlink:title=" ">
<path fill="none" stroke="#63b8ff" d="M1178.88,-110.33C1178.88,-103.82 1178.88,-94.67 1178.88,-86.37"/>
<polygon fill="#63b8ff" stroke="#63b8ff" points="1182.38,-86.37 1178.88,-76.37 1175.38,-86.37 1182.38,-86.37"/>
</a>
</g>
</g>
<!-- Node20&#45;&gt;Node20 -->
<g id="edge23_Node000020_Node000020" class="edge">
<title>Node20&#45;&gt;Node20</title>
<g id="a_edge23_Node000020_Node000020"><a xlink:title=" ">
<path fill="none" stroke="#63b8ff" d="M1214.76,-130.23C1232.01,-131.48 1247.25,-128.11 1247.25,-120.12 1247.25,-113.95 1238.14,-110.53 1226.02,-109.88"/>
<polygon fill="#63b8ff" stroke="#63b8ff" points="1226.23,-106.38 1216.27,-110 1226.31,-113.38 1226.23,-106.38"/>
</a>
</g>
</g>
</g>
</svg>
