<?xml version="1.0" encoding="UTF-8" standalone="no"?>
<!DOCTYPE svg PUBLIC "-//W3C//DTD SVG 1.1//EN"
 "http://www.w3.org/Graphics/SVG/1.1/DTD/svg11.dtd">
<!-- Generated by graphviz version 12.2.1 (20241206.2353)
 -->
<!-- Title: include/AABBtree/Box.hxx Pages: 1 -->
<svg width="420pt" height="193pt"
 viewBox="0.00 0.00 419.80 193.00" xmlns="http://www.w3.org/2000/svg" xmlns:xlink="http://www.w3.org/1999/xlink">
<g id="graph0" class="graph" transform="scale(1 1) rotate(0) translate(4 189)">
<title>include/AABBtree/Box.hxx</title>
<!-- Node1 -->
<g id="Node000001" class="node">
<title>Node1</title>
<g id="a_Node000001"><a xlink:title=" ">
<polygon fill="#999999" stroke="#666666" points="328.75,-185 196.5,-185 196.5,-165.75 328.75,-165.75 328.75,-185"/>
<text text-anchor="middle" x="262.62" y="-171.5" font-family="Helvetica,sans-Serif" font-size="10.00">include/AABBtree/Box.hxx</text>
</a>
</g>
</g>
<!-- Node2 -->
<g id="Node000002" class="node">
<title>Node2</title>
<g id="a_Node000002"><a xlink:href="_a_a_b_btree_8hh.html" target="_top" xlink:title=" ">
<polygon fill="white" stroke="#666666" points="259,-19.25 152.25,-19.25 152.25,0 259,0 259,-19.25"/>
<text text-anchor="middle" x="205.62" y="-5.75" font-family="Helvetica,sans-Serif" font-size="10.00">include/AABBtree.hh</text>
</a>
</g>
</g>
<!-- Node1&#45;&gt;Node2 -->
<g id="edge1_Node000001_Node000002" class="edge">
<title>Node1&#45;&gt;Node2</title>
<g id="a_edge1_Node000001_Node000002"><a xlink:title=" ">
<path fill="none" stroke="#63b8ff" d="M300.81,-161.35C353.65,-141.3 438.7,-100.41 402.62,-55.25 384.95,-33.13 311.17,-21.16 259.11,-15.33"/>
<polygon fill="#63b8ff" stroke="#63b8ff" points="299.67,-158.04 291.5,-164.79 302.1,-164.61 299.67,-158.04"/>
</a>
</g>
</g>
<!-- Node3 -->
<g id="Node000003" class="node">
<title>Node3</title>
<g id="a_Node000003"><a xlink:href="_non_recursive_8hxx.html" target="_top" xlink:title=" ">
<polygon fill="white" stroke="#666666" points="177.25,-74.5 0,-74.5 0,-55.25 177.25,-55.25 177.25,-74.5"/>
<text text-anchor="middle" x="88.62" y="-61" font-family="Helvetica,sans-Serif" font-size="10.00">include/AABBtree/NonRecursive.hxx</text>
</a>
</g>
</g>
<!-- Node1&#45;&gt;Node3 -->
<g id="edge2_Node000001_Node000003" class="edge">
<title>Node1&#45;&gt;Node3</title>
<g id="a_edge2_Node000001_Node000003"><a xlink:title=" ">
<path fill="none" stroke="#63b8ff" d="M202.47,-162.32C179.03,-155.52 152.97,-145.19 132.62,-129.75 112.89,-114.77 98.79,-88.33 92.42,-74.64"/>
<polygon fill="#63b8ff" stroke="#63b8ff" points="201.35,-165.64 211.92,-164.89 203.19,-158.88 201.35,-165.64"/>
</a>
</g>
</g>
<!-- Node4 -->
<g id="Node000004" class="node">
<title>Node4</title>
<g id="a_Node000004"><a xlink:href="_recursive_8hxx.html" target="_top" xlink:title=" ">
<polygon fill="white" stroke="#666666" points="393.25,-74.5 234,-74.5 234,-55.25 393.25,-55.25 393.25,-74.5"/>
<text text-anchor="middle" x="313.62" y="-61" font-family="Helvetica,sans-Serif" font-size="10.00">include/AABBtree/Recursive.hxx</text>
</a>
</g>
</g>
<!-- Node1&#45;&gt;Node4 -->
<g id="edge4_Node000001_Node000004" class="edge">
<title>Node1&#45;&gt;Node4</title>
<g id="a_edge4_Node000001_Node000004"><a xlink:title=" ">
<path fill="none" stroke="#63b8ff" d="M272.1,-155.49C276.03,-147.57 280.61,-138.24 284.62,-129.75 293.9,-110.16 304.3,-86.93 309.77,-74.59"/>
<polygon fill="#63b8ff" stroke="#63b8ff" points="269.1,-153.66 267.77,-164.17 275.37,-156.79 269.1,-153.66"/>
</a>
</g>
</g>
<!-- Node5 -->
<g id="Node000005" class="node">
<title>Node5</title>
<g id="a_Node000005"><a xlink:href="_tree_8hxx.html" target="_top" xlink:title=" ">
<polygon fill="white" stroke="#666666" points="275.88,-129.75 141.38,-129.75 141.38,-110.5 275.88,-110.5 275.88,-129.75"/>
<text text-anchor="middle" x="208.62" y="-116.25" font-family="Helvetica,sans-Serif" font-size="10.00">include/AABBtree/Tree.hxx</text>
</a>
</g>
</g>
<!-- Node1&#45;&gt;Node5 -->
<g id="edge5_Node000001_Node000005" class="edge">
<title>Node1&#45;&gt;Node5</title>
<g id="a_edge5_Node000001_Node000005"><a xlink:title=" ">
<path fill="none" stroke="#63b8ff" d="M245.59,-157.57C236.36,-148.48 225.33,-137.6 217.74,-130.11"/>
<polygon fill="#63b8ff" stroke="#63b8ff" points="243.05,-159.99 252.63,-164.52 247.97,-155.01 243.05,-159.99"/>
</a>
</g>
</g>
<!-- Node3&#45;&gt;Node2 -->
<g id="edge3_Node000003_Node000002" class="edge">
<title>Node3&#45;&gt;Node2</title>
<g id="a_edge3_Node000003_Node000002"><a xlink:title=" ">
<path fill="none" stroke="#63b8ff" d="M118.81,-50.14C139.85,-40.56 167.33,-28.06 185.68,-19.7"/>
<polygon fill="#63b8ff" stroke="#63b8ff" points="117.5,-46.89 109.85,-54.21 120.4,-53.26 117.5,-46.89"/>
</a>
</g>
</g>
<!-- Node5&#45;&gt;Node2 -->
<g id="edge6_Node000005_Node000002" class="edge">
<title>Node5&#45;&gt;Node2</title>
<g id="a_edge6_Node000005_Node000002"><a xlink:title=" ">
<path fill="none" stroke="#63b8ff" d="M208.06,-98.78C207.41,-75.05 206.35,-36.89 205.87,-19.63"/>
<polygon fill="#63b8ff" stroke="#63b8ff" points="204.56,-98.83 208.34,-108.73 211.56,-98.64 204.56,-98.83"/>
</a>
</g>
</g>
<!-- Node5&#45;&gt;Node3 -->
<g id="edge7_Node000005_Node000003" class="edge">
<title>Node5&#45;&gt;Node3</title>
<g id="a_edge7_Node000005_Node000003"><a xlink:title=" ">
<path fill="none" stroke="#63b8ff" d="M177.97,-105.52C156.35,-95.93 127.99,-83.34 109.08,-74.95"/>
<polygon fill="#63b8ff" stroke="#63b8ff" points="176.33,-108.62 186.89,-109.48 179.16,-102.22 176.33,-108.62"/>
</a>
</g>
</g>
<!-- Node5&#45;&gt;Node4 -->
<g id="edge8_Node000005_Node000004" class="edge">
<title>Node5&#45;&gt;Node4</title>
<g id="a_edge8_Node000005_Node000004"><a xlink:title=" ">
<path fill="none" stroke="#63b8ff" d="M236.49,-104.99C255.27,-95.47 279.48,-83.19 295.73,-74.95"/>
<polygon fill="#63b8ff" stroke="#63b8ff" points="235.12,-101.76 227.79,-109.41 238.29,-108.01 235.12,-101.76"/>
</a>
</g>
</g>
</g>
</svg>
