<?xml version="1.0" encoding="UTF-8" standalone="no"?>
<!DOCTYPE svg PUBLIC "-//W3C//DTD SVG 1.1//EN"
 "http://www.w3.org/Graphics/SVG/1.1/DTD/svg11.dtd">
<!-- Generated by graphviz version 12.2.1 (20241206.2353)
 -->
<!-- Title: include/AABBtree/Box.hxx Pages: 1 -->
<svg width="207pt" height="138pt"
 viewBox="0.00 0.00 207.38 137.75" xmlns="http://www.w3.org/2000/svg" xmlns:xlink="http://www.w3.org/1999/xlink">
<g id="graph0" class="graph" transform="scale(1 1) rotate(0) translate(4 133.75)">
<title>include/AABBtree/Box.hxx</title>
<!-- Node1 -->
<g id="Node000001" class="node">
<title>Node1</title>
<g id="a_Node000001"><a xlink:title=" ">
<polygon fill="#999999" stroke="#666666" points="132.25,-129.75 0,-129.75 0,-110.5 132.25,-110.5 132.25,-129.75"/>
<text text-anchor="middle" x="66.12" y="-116.25" font-family="Helvetica,sans-Serif" font-size="10.00">include/AABBtree/Box.hxx</text>
</a>
</g>
</g>
<!-- Node2 -->
<g id="Node000002" class="node">
<title>Node2</title>
<g id="a_Node000002"><a xlink:href="_a_a_b_btree_8hh.html" target="_top" xlink:title=" ">
<polygon fill="white" stroke="#666666" points="119.5,-19.25 12.75,-19.25 12.75,0 119.5,0 119.5,-19.25"/>
<text text-anchor="middle" x="66.12" y="-5.75" font-family="Helvetica,sans-Serif" font-size="10.00">include/AABBtree.hh</text>
</a>
</g>
</g>
<!-- Node1&#45;&gt;Node2 -->
<g id="edge1_Node000001_Node000002" class="edge">
<title>Node1&#45;&gt;Node2</title>
<g id="a_edge1_Node000001_Node000002"><a xlink:title=" ">
<path fill="none" stroke="#63b8ff" d="M50.98,-101.4C42.11,-88.83 33.48,-71.41 38.12,-55.25 42.07,-41.54 51.6,-27.97 58.45,-19.46"/>
<polygon fill="#63b8ff" stroke="#63b8ff" points="48.08,-103.36 56.98,-109.11 53.61,-99.07 48.08,-103.36"/>
</a>
</g>
</g>
<!-- Node3 -->
<g id="Node000003" class="node">
<title>Node3</title>
<g id="a_Node000003"><a xlink:href="_tree_8hxx.html" target="_top" xlink:title=" ">
<polygon fill="white" stroke="#666666" points="181.38,-74.5 46.88,-74.5 46.88,-55.25 181.38,-55.25 181.38,-74.5"/>
<text text-anchor="middle" x="114.12" y="-61" font-family="Helvetica,sans-Serif" font-size="10.00">include/AABBtree/Tree.hxx</text>
</a>
</g>
</g>
<!-- Node1&#45;&gt;Node3 -->
<g id="edge2_Node000001_Node000003" class="edge">
<title>Node1&#45;&gt;Node3</title>
<g id="a_edge2_Node000001_Node000003"><a xlink:title=" ">
<path fill="none" stroke="#63b8ff" d="M81.52,-102.04C89.67,-93 99.34,-82.27 106.03,-74.86"/>
<polygon fill="#63b8ff" stroke="#63b8ff" points="79.16,-99.44 75.06,-109.21 84.36,-104.12 79.16,-99.44"/>
</a>
</g>
</g>
<!-- Node3&#45;&gt;Node2 -->
<g id="edge3_Node000003_Node000002" class="edge">
<title>Node3&#45;&gt;Node2</title>
<g id="a_edge3_Node000003_Node000002"><a xlink:title=" ">
<path fill="none" stroke="#63b8ff" d="M98.73,-46.79C90.58,-37.75 80.91,-27.02 74.22,-19.61"/>
<polygon fill="#63b8ff" stroke="#63b8ff" points="95.89,-48.87 105.19,-53.96 101.09,-44.19 95.89,-48.87"/>
</a>
</g>
</g>
<!-- Node3&#45;&gt;Node3 -->
<g id="edge4_Node000003_Node000003" class="edge">
<title>Node3&#45;&gt;Node3</title>
<g id="a_edge4_Node000003_Node000003"><a xlink:title=" ">
<path fill="none" stroke="#63b8ff" d="M170.12,-75.21C186.59,-74.87 199.38,-71.43 199.38,-64.88 199.38,-56.89 180.38,-53.52 158.86,-54.77"/>
<polygon fill="#63b8ff" stroke="#63b8ff" points="170.44,-71.71 160.37,-75.01 170.3,-78.71 170.44,-71.71"/>
</a>
</g>
</g>
</g>
</svg>
