<?xml version="1.0" encoding="UTF-8" standalone="no"?>
<!DOCTYPE svg PUBLIC "-//W3C//DTD SVG 1.1//EN"
 "http://www.w3.org/Graphics/SVG/1.1/DTD/svg11.dtd">
<!-- Generated by graphviz version 12.2.1 (20241206.2353)
 -->
<!-- Title: include/AABBtree/Box.hxx Pages: 1 -->
<svg width="323pt" height="138pt"
 viewBox="0.00 0.00 322.61 137.75" xmlns="http://www.w3.org/2000/svg" xmlns:xlink="http://www.w3.org/1999/xlink">
<g id="graph0" class="graph" transform="scale(1 1) rotate(0) translate(4 133.75)">
<title>include/AABBtree/Box.hxx</title>
<!-- Node1 -->
<g id="Node000001" class="node">
<title>Node1</title>
<g id="a_Node000001"><a xlink:title=" ">
<polygon fill="#999999" stroke="#666666" points="144.49,-129.75 12.24,-129.75 12.24,-110.5 144.49,-110.5 144.49,-129.75"/>
<text text-anchor="middle" x="78.36" y="-116.25" font-family="Helvetica,sans-Serif" font-size="10.00">include/AABBtree/Box.hxx</text>
</a>
</g>
</g>
<!-- Node2 -->
<g id="Node000002" class="node">
<title>Node2</title>
<g id="a_Node000002"><a xlink:href="_a_a_b_btree_8hh.html" target="_top" xlink:title=" ">
<polygon fill="white" stroke="#666666" points="131.74,-19.25 24.99,-19.25 24.99,0 131.74,0 131.74,-19.25"/>
<text text-anchor="middle" x="78.36" y="-5.75" font-family="Helvetica,sans-Serif" font-size="10.00">include/AABBtree.hh</text>
</a>
</g>
</g>
<!-- Node1&#45;&gt;Node2 -->
<g id="edge1_Node000001_Node000002" class="edge">
<title>Node1&#45;&gt;Node2</title>
<g id="a_edge1_Node000001_Node000002"><a xlink:title=" ">
<path fill="none" stroke="#63b8ff" d="M39.14,-105.34C25.3,-98.36 11.24,-88.35 3.36,-74.5 -10.67,-49.82 25.03,-30.29 51.87,-19.61"/>
<polygon fill="#63b8ff" stroke="#63b8ff" points="37.65,-108.5 48.2,-109.47 40.55,-102.13 37.65,-108.5"/>
</a>
</g>
</g>
<!-- Node3 -->
<g id="Node000003" class="node">
<title>Node3</title>
<g id="a_Node000003"><a xlink:href="_ray_8hxx.html" target="_top" xlink:title=" ">
<polygon fill="white" stroke="#666666" points="144.11,-74.5 12.61,-74.5 12.61,-55.25 144.11,-55.25 144.11,-74.5"/>
<text text-anchor="middle" x="78.36" y="-61" font-family="Helvetica,sans-Serif" font-size="10.00">include/AABBtree/Ray.hxx</text>
</a>
</g>
</g>
<!-- Node1&#45;&gt;Node3 -->
<g id="edge2_Node000001_Node000003" class="edge">
<title>Node1&#45;&gt;Node3</title>
<g id="a_edge2_Node000001_Node000003"><a xlink:title=" ">
<path fill="none" stroke="#63b8ff" d="M71.8,-99.17C71.31,-90.8 71.76,-81.5 73.15,-74.86"/>
<polygon fill="#63b8ff" stroke="#63b8ff" points="68.3,-99.34 73.01,-108.83 75.24,-98.47 68.3,-99.34"/>
</a>
</g>
</g>
<!-- Node4 -->
<g id="Node000004" class="node">
<title>Node4</title>
<g id="a_Node000004"><a xlink:href="_tree_8hxx.html" target="_top" xlink:title=" ">
<polygon fill="white" stroke="#666666" points="296.61,-74.5 162.11,-74.5 162.11,-55.25 296.61,-55.25 296.61,-74.5"/>
<text text-anchor="middle" x="229.36" y="-61" font-family="Helvetica,sans-Serif" font-size="10.00">include/AABBtree/Tree.hxx</text>
</a>
</g>
</g>
<!-- Node1&#45;&gt;Node4 -->
<g id="edge5_Node000001_Node000004" class="edge">
<title>Node1&#45;&gt;Node4</title>
<g id="a_edge5_Node000001_Node000004"><a xlink:title=" ">
<path fill="none" stroke="#63b8ff" d="M114.72,-106.3C142.18,-96.62 179.17,-83.57 203.62,-74.95"/>
<polygon fill="#63b8ff" stroke="#63b8ff" points="113.67,-102.96 105.4,-109.59 116,-109.56 113.67,-102.96"/>
</a>
</g>
</g>
<!-- Node3&#45;&gt;Node1 -->
<g id="edge4_Node000003_Node000001" class="edge">
<title>Node3&#45;&gt;Node1</title>
<g id="a_edge4_Node000003_Node000001"><a xlink:title=" ">
<path fill="none" stroke="#63b8ff" d="M84.93,-86.07C85.4,-94.46 84.94,-103.74 83.53,-110.33"/>
<polygon fill="#63b8ff" stroke="#63b8ff" points="88.43,-85.87 83.75,-76.36 81.48,-86.71 88.43,-85.87"/>
</a>
</g>
</g>
<!-- Node3&#45;&gt;Node2 -->
<g id="edge3_Node000003_Node000002" class="edge">
<title>Node3&#45;&gt;Node2</title>
<g id="a_edge3_Node000003_Node000002"><a xlink:title=" ">
<path fill="none" stroke="#63b8ff" d="M78.36,-43.63C78.36,-35.34 78.36,-26.17 78.36,-19.61"/>
<polygon fill="#63b8ff" stroke="#63b8ff" points="74.86,-43.57 78.36,-53.57 81.86,-43.57 74.86,-43.57"/>
</a>
</g>
</g>
<!-- Node4&#45;&gt;Node2 -->
<g id="edge6_Node000004_Node000002" class="edge">
<title>Node4&#45;&gt;Node2</title>
<g id="a_edge6_Node000004_Node000002"><a xlink:title=" ">
<path fill="none" stroke="#63b8ff" d="M193,-51.05C165.55,-41.37 128.55,-28.32 104.1,-19.7"/>
<polygon fill="#63b8ff" stroke="#63b8ff" points="191.72,-54.31 202.32,-54.34 194.05,-47.71 191.72,-54.31"/>
</a>
</g>
</g>
<!-- Node4&#45;&gt;Node4 -->
<g id="edge7_Node000004_Node000004" class="edge">
<title>Node4&#45;&gt;Node4</title>
<g id="a_edge7_Node000004_Node000004"><a xlink:title=" ">
<path fill="none" stroke="#63b8ff" d="M285.36,-75.21C301.83,-74.87 314.61,-71.43 314.61,-64.88 314.61,-56.89 295.61,-53.52 274.1,-54.77"/>
<polygon fill="#63b8ff" stroke="#63b8ff" points="285.68,-71.71 275.61,-75.01 285.54,-78.71 285.68,-71.71"/>
</a>
</g>
</g>
</g>
</svg>
