<?xml version="1.0" encoding="UTF-8" standalone="no"?>
<!DOCTYPE svg PUBLIC "-//W3C//DTD SVG 1.1//EN"
 "http://www.w3.org/Graphics/SVG/1.1/DTD/svg11.dtd">
<!-- Generated by graphviz version 12.2.1 (20241206.2353)
 -->
<!-- Title: include/AABBtree/NonRecursive.hxx Pages: 1 -->
<svg width="186pt" height="138pt"
 viewBox="0.00 0.00 186.00 137.75" xmlns="http://www.w3.org/2000/svg" xmlns:xlink="http://www.w3.org/1999/xlink">
<g id="graph0" class="graph" transform="scale(1 1) rotate(0) translate(4 133.75)">
<title>include/AABBtree/NonRecursive.hxx</title>
<!-- Node1 -->
<g id="Node000001" class="node">
<title>Node1</title>
<g id="a_Node000001"><a xlink:title=" ">
<polygon fill="#999999" stroke="#666666" points="177.25,-129.75 0,-129.75 0,-110.5 177.25,-110.5 177.25,-129.75"/>
<text text-anchor="middle" x="88.62" y="-116.25" font-family="Helvetica,sans-Serif" font-size="10.00">include/AABBtree/NonRecursive.hxx</text>
</a>
</g>
</g>
<!-- Node2 -->
<g id="Node000002" class="node">
<title>Node2</title>
<g id="a_Node000002"><a xlink:href="_box_8hxx.html" target="_top" xlink:title=" ">
<polygon fill="white" stroke="#666666" points="137.88,-19.25 39.37,-19.25 39.37,0 137.88,0 137.88,-19.25"/>
<text text-anchor="middle" x="88.62" y="-5.75" font-family="Helvetica,sans-Serif" font-size="10.00">AABBtree/Box.hxx</text>
</a>
</g>
</g>
<!-- Node1&#45;&gt;Node2 -->
<g id="edge1_Node000001_Node000002" class="edge">
<title>Node1&#45;&gt;Node2</title>
<g id="a_edge1_Node000001_Node000002"><a xlink:title=" ">
<path fill="none" stroke="#63b8ff" d="M82.73,-110.17C75.41,-97.94 64.35,-75.25 68.62,-55.25 70.51,-46.44 74.27,-37.26 78.03,-29.54"/>
<polygon fill="#63b8ff" stroke="#63b8ff" points="81.06,-31.29 82.61,-20.81 74.86,-28.04 81.06,-31.29"/>
</a>
</g>
</g>
<!-- Node3 -->
<g id="Node000003" class="node">
<title>Node3</title>
<g id="a_Node000003"><a xlink:href="_tree_8hxx.html" target="_top" xlink:title=" ">
<polygon fill="white" stroke="#666666" points="178,-74.5 77.25,-74.5 77.25,-55.25 178,-55.25 178,-74.5"/>
<text text-anchor="middle" x="127.62" y="-61" font-family="Helvetica,sans-Serif" font-size="10.00">AABBtree/Tree.hxx</text>
</a>
</g>
</g>
<!-- Node1&#45;&gt;Node3 -->
<g id="edge2_Node000001_Node000003" class="edge">
<title>Node1&#45;&gt;Node3</title>
<g id="a_edge2_Node000001_Node000003"><a xlink:title=" ">
<path fill="none" stroke="#63b8ff" d="M95.07,-110.33C100.28,-103.21 107.81,-92.93 114.32,-84.05"/>
<polygon fill="#63b8ff" stroke="#63b8ff" points="117.07,-86.22 120.15,-76.08 111.42,-82.08 117.07,-86.22"/>
</a>
</g>
</g>
<!-- Node3&#45;&gt;Node2 -->
<g id="edge3_Node000003_Node000002" class="edge">
<title>Node3&#45;&gt;Node2</title>
<g id="a_edge3_Node000003_Node000002"><a xlink:title=" ">
<path fill="none" stroke="#63b8ff" d="M121.18,-55.08C115.97,-47.96 108.44,-37.68 101.93,-28.8"/>
<polygon fill="#63b8ff" stroke="#63b8ff" points="104.83,-26.83 96.1,-20.83 99.18,-30.97 104.83,-26.83"/>
</a>
</g>
</g>
</g>
</svg>
