<?xml version="1.0" encoding="UTF-8" standalone="no"?>
<!DOCTYPE svg PUBLIC "-//W3C//DTD SVG 1.1//EN"
 "http://www.w3.org/Graphics/SVG/1.1/DTD/svg11.dtd">
<!-- Generated by graphviz version 12.2.1 (20241206.2353)
 -->
<!-- Title: include/AABBtree/Ray.hxx Pages: 1 -->
<svg width="242pt" height="193pt"
 viewBox="0.00 0.00 241.62 193.00" xmlns="http://www.w3.org/2000/svg" xmlns:xlink="http://www.w3.org/1999/xlink">
<g id="graph0" class="graph" transform="scale(1 1) rotate(0) translate(4 189)">
<title>include/AABBtree/Ray.hxx</title>
<!-- Node1 -->
<g id="Node000001" class="node">
<title>Node1</title>
<g id="a_Node000001"><a xlink:title=" ">
<polygon fill="#999999" stroke="#666666" points="175.12,-185 43.62,-185 43.62,-165.75 175.12,-165.75 175.12,-185"/>
<text text-anchor="middle" x="109.38" y="-171.5" font-family="Helvetica,sans-Serif" font-size="10.00">include/AABBtree/Ray.hxx</text>
</a>
</g>
</g>
<!-- Node2 -->
<g id="Node000002" class="node">
<title>Node2</title>
<g id="a_Node000002"><a xlink:href="_a_a_b_btree_8hh.html" target="_top" xlink:title=" ">
<polygon fill="white" stroke="#666666" points="106.75,-19.25 0,-19.25 0,0 106.75,0 106.75,-19.25"/>
<text text-anchor="middle" x="53.38" y="-5.75" font-family="Helvetica,sans-Serif" font-size="10.00">include/AABBtree.hh</text>
</a>
</g>
</g>
<!-- Node1&#45;&gt;Node2 -->
<g id="edge1_Node000001_Node000002" class="edge">
<title>Node1&#45;&gt;Node2</title>
<g id="a_edge1_Node000001_Node000002"><a xlink:title=" ">
<path fill="none" stroke="#63b8ff" d="M70.16,-160.59C56.32,-153.61 42.25,-143.6 34.38,-129.75 13.57,-93.16 37.15,-40.59 48.24,-19.69"/>
<polygon fill="#63b8ff" stroke="#63b8ff" points="68.66,-163.75 79.21,-164.72 71.57,-157.38 68.66,-163.75"/>
</a>
</g>
</g>
<!-- Node3 -->
<g id="Node000003" class="node">
<title>Node3</title>
<g id="a_Node000003"><a xlink:href="_box_8hxx.html" target="_top" xlink:title=" ">
<polygon fill="white" stroke="#666666" points="175.5,-129.75 43.25,-129.75 43.25,-110.5 175.5,-110.5 175.5,-129.75"/>
<text text-anchor="middle" x="109.38" y="-116.25" font-family="Helvetica,sans-Serif" font-size="10.00">include/AABBtree/Box.hxx</text>
</a>
</g>
</g>
<!-- Node1&#45;&gt;Node3 -->
<g id="edge2_Node000001_Node000003" class="edge">
<title>Node1&#45;&gt;Node3</title>
<g id="a_edge2_Node000001_Node000003"><a xlink:title=" ">
<path fill="none" stroke="#63b8ff" d="M102.82,-154.42C102.33,-146.05 102.78,-136.75 104.17,-130.11"/>
<polygon fill="#63b8ff" stroke="#63b8ff" points="99.31,-154.59 104.02,-164.08 106.26,-153.72 99.31,-154.59"/>
</a>
</g>
</g>
<!-- Node3&#45;&gt;Node1 -->
<g id="edge4_Node000003_Node000001" class="edge">
<title>Node3&#45;&gt;Node1</title>
<g id="a_edge4_Node000003_Node000001"><a xlink:title=" ">
<path fill="none" stroke="#63b8ff" d="M115.95,-141.32C116.42,-149.71 115.95,-158.99 114.54,-165.58"/>
<polygon fill="#63b8ff" stroke="#63b8ff" points="119.45,-141.12 114.76,-131.61 112.5,-141.96 119.45,-141.12"/>
</a>
</g>
</g>
<!-- Node3&#45;&gt;Node2 -->
<g id="edge3_Node000003_Node000002" class="edge">
<title>Node3&#45;&gt;Node2</title>
<g id="a_edge3_Node000003_Node000002"><a xlink:title=" ">
<path fill="none" stroke="#63b8ff" d="M92.22,-101.81C85.25,-94 77.62,-84.33 72.38,-74.5 62.67,-56.34 57.28,-32.55 54.89,-19.74"/>
<polygon fill="#63b8ff" stroke="#63b8ff" points="89.49,-104.02 98.88,-108.92 94.6,-99.23 89.49,-104.02"/>
</a>
</g>
</g>
<!-- Node4 -->
<g id="Node000004" class="node">
<title>Node4</title>
<g id="a_Node000004"><a xlink:href="_tree_8hxx.html" target="_top" xlink:title=" ">
<polygon fill="white" stroke="#666666" points="215.62,-74.5 81.12,-74.5 81.12,-55.25 215.62,-55.25 215.62,-74.5"/>
<text text-anchor="middle" x="148.38" y="-61" font-family="Helvetica,sans-Serif" font-size="10.00">include/AABBtree/Tree.hxx</text>
</a>
</g>
</g>
<!-- Node3&#45;&gt;Node4 -->
<g id="edge5_Node000003_Node000004" class="edge">
<title>Node3&#45;&gt;Node4</title>
<g id="a_edge5_Node000003_Node000004"><a xlink:title=" ">
<path fill="none" stroke="#63b8ff" d="M122.51,-101.19C129,-92.34 136.54,-82.04 141.8,-74.86"/>
<polygon fill="#63b8ff" stroke="#63b8ff" points="119.79,-98.98 116.71,-109.11 125.44,-103.11 119.79,-98.98"/>
</a>
</g>
</g>
<!-- Node4&#45;&gt;Node2 -->
<g id="edge6_Node000004_Node000002" class="edge">
<title>Node4&#45;&gt;Node2</title>
<g id="a_edge6_Node000004_Node000002"><a xlink:title=" ">
<path fill="none" stroke="#63b8ff" d="M122.45,-49.34C105.56,-39.88 84.06,-27.83 69.57,-19.7"/>
<polygon fill="#63b8ff" stroke="#63b8ff" points="120.5,-52.27 130.94,-54.1 123.93,-46.16 120.5,-52.27"/>
</a>
</g>
</g>
<!-- Node4&#45;&gt;Node4 -->
<g id="edge7_Node000004_Node000004" class="edge">
<title>Node4&#45;&gt;Node4</title>
<g id="a_edge7_Node000004_Node000004"><a xlink:title=" ">
<path fill="none" stroke="#63b8ff" d="M204.37,-75.21C220.84,-74.87 233.62,-71.43 233.62,-64.88 233.62,-56.89 214.63,-53.52 193.11,-54.77"/>
<polygon fill="#63b8ff" stroke="#63b8ff" points="204.69,-71.71 194.62,-75.01 204.55,-78.71 204.69,-71.71"/>
</a>
</g>
</g>
</g>
</svg>
