<?xml version="1.0" encoding="UTF-8" standalone="no"?>
<!DOCTYPE svg PUBLIC "-//W3C//DTD SVG 1.1//EN"
 "http://www.w3.org/Graphics/SVG/1.1/DTD/svg11.dtd">
<!-- Generated by graphviz version 12.2.1 (20241206.2353)
 -->
<!-- Title: include/AABBtree/Ray.hxx Pages: 1 -->
<svg width="140pt" height="83pt"
 viewBox="0.00 0.00 139.50 82.50" xmlns="http://www.w3.org/2000/svg" xmlns:xlink="http://www.w3.org/1999/xlink">
<g id="graph0" class="graph" transform="scale(1 1) rotate(0) translate(4 78.5)">
<title>include/AABBtree/Ray.hxx</title>
<!-- Node1 -->
<g id="Node000001" class="node">
<title>Node1</title>
<g id="a_Node000001"><a xlink:title=" ">
<polygon fill="#999999" stroke="#666666" points="131.5,-74.5 0,-74.5 0,-55.25 131.5,-55.25 131.5,-74.5"/>
<text text-anchor="middle" x="65.75" y="-61" font-family="Helvetica,sans-Serif" font-size="10.00">include/AABBtree/Ray.hxx</text>
</a>
</g>
</g>
<!-- Node2 -->
<g id="Node000002" class="node">
<title>Node2</title>
<g id="a_Node000002"><a xlink:href="_box_8hxx.html" target="_top" xlink:title=" ">
<polygon fill="white" stroke="#666666" points="115,-19.25 16.5,-19.25 16.5,0 115,0 115,-19.25"/>
<text text-anchor="middle" x="65.75" y="-5.75" font-family="Helvetica,sans-Serif" font-size="10.00">AABBtree/Box.hxx</text>
</a>
</g>
</g>
<!-- Node1&#45;&gt;Node2 -->
<g id="edge1_Node000001_Node000002" class="edge">
<title>Node1&#45;&gt;Node2</title>
<g id="a_edge1_Node000001_Node000002"><a xlink:title=" ">
<path fill="none" stroke="#63b8ff" d="M60.58,-55.08C59.17,-48.49 58.71,-39.21 59.18,-30.82"/>
<polygon fill="#63b8ff" stroke="#63b8ff" points="62.63,-31.46 60.36,-21.11 55.68,-30.62 62.63,-31.46"/>
</a>
</g>
</g>
<!-- Node2&#45;&gt;Node1 -->
<g id="edge2_Node000002_Node000001" class="edge">
<title>Node2&#45;&gt;Node1</title>
<g id="a_edge2_Node000002_Node000001"><a xlink:title=" ">
<path fill="none" stroke="#63b8ff" d="M70.96,-19.61C72.35,-26.25 72.8,-35.55 72.31,-43.92"/>
<polygon fill="#63b8ff" stroke="#63b8ff" points="68.87,-43.22 71.1,-53.58 75.81,-44.09 68.87,-43.22"/>
</a>
</g>
</g>
</g>
</svg>
