<?xml version="1.0" encoding="UTF-8" standalone="no"?>
<!DOCTYPE svg PUBLIC "-//W3C//DTD SVG 1.1//EN"
 "http://www.w3.org/Graphics/SVG/1.1/DTD/svg11.dtd">
<!-- Generated by graphviz version 12.2.1 (20241206.2353)
 -->
<!-- Title: include/AABBtree/Recursive.hxx Pages: 1 -->
<svg width="177pt" height="138pt"
 viewBox="0.00 0.00 177.00 137.75" xmlns="http://www.w3.org/2000/svg" xmlns:xlink="http://www.w3.org/1999/xlink">
<g id="graph0" class="graph" transform="scale(1 1) rotate(0) translate(4 133.75)">
<title>include/AABBtree/Recursive.hxx</title>
<!-- Node1 -->
<g id="Node000001" class="node">
<title>Node1</title>
<g id="a_Node000001"><a xlink:title=" ">
<polygon fill="#999999" stroke="#666666" points="159.25,-129.75 0,-129.75 0,-110.5 159.25,-110.5 159.25,-129.75"/>
<text text-anchor="middle" x="79.62" y="-116.25" font-family="Helvetica,sans-Serif" font-size="10.00">include/AABBtree/Recursive.hxx</text>
</a>
</g>
</g>
<!-- Node2 -->
<g id="Node000002" class="node">
<title>Node2</title>
<g id="a_Node000002"><a xlink:href="_box_8hxx.html" target="_top" xlink:title=" ">
<polygon fill="white" stroke="#666666" points="128.88,-19.25 30.37,-19.25 30.37,0 128.88,0 128.88,-19.25"/>
<text text-anchor="middle" x="79.62" y="-5.75" font-family="Helvetica,sans-Serif" font-size="10.00">AABBtree/Box.hxx</text>
</a>
</g>
</g>
<!-- Node1&#45;&gt;Node2 -->
<g id="edge1_Node000001_Node000002" class="edge">
<title>Node1&#45;&gt;Node2</title>
<g id="a_edge1_Node000001_Node000002"><a xlink:title=" ">
<path fill="none" stroke="#63b8ff" d="M73.73,-110.17C66.41,-97.94 55.35,-75.25 59.62,-55.25 61.51,-46.44 65.27,-37.26 69.03,-29.54"/>
<polygon fill="#63b8ff" stroke="#63b8ff" points="72.06,-31.29 73.61,-20.81 65.86,-28.04 72.06,-31.29"/>
</a>
</g>
</g>
<!-- Node3 -->
<g id="Node000003" class="node">
<title>Node3</title>
<g id="a_Node000003"><a xlink:href="_tree_8hxx.html" target="_top" xlink:title=" ">
<polygon fill="white" stroke="#666666" points="169,-74.5 68.25,-74.5 68.25,-55.25 169,-55.25 169,-74.5"/>
<text text-anchor="middle" x="118.62" y="-61" font-family="Helvetica,sans-Serif" font-size="10.00">AABBtree/Tree.hxx</text>
</a>
</g>
</g>
<!-- Node1&#45;&gt;Node3 -->
<g id="edge2_Node000001_Node000003" class="edge">
<title>Node1&#45;&gt;Node3</title>
<g id="a_edge2_Node000001_Node000003"><a xlink:title=" ">
<path fill="none" stroke="#63b8ff" d="M86.07,-110.33C91.28,-103.21 98.81,-92.93 105.32,-84.05"/>
<polygon fill="#63b8ff" stroke="#63b8ff" points="108.07,-86.22 111.15,-76.08 102.42,-82.08 108.07,-86.22"/>
</a>
</g>
</g>
<!-- Node3&#45;&gt;Node2 -->
<g id="edge3_Node000003_Node000002" class="edge">
<title>Node3&#45;&gt;Node2</title>
<g id="a_edge3_Node000003_Node000002"><a xlink:title=" ">
<path fill="none" stroke="#63b8ff" d="M112.18,-55.08C106.97,-47.96 99.44,-37.68 92.93,-28.8"/>
<polygon fill="#63b8ff" stroke="#63b8ff" points="95.83,-26.83 87.1,-20.83 90.18,-30.97 95.83,-26.83"/>
</a>
</g>
</g>
</g>
</svg>
