<?xml version="1.0" encoding="UTF-8" standalone="no"?>
<!DOCTYPE svg PUBLIC "-//W3C//DTD SVG 1.1//EN"
 "http://www.w3.org/Graphics/SVG/1.1/DTD/svg11.dtd">
<!-- Generated by graphviz version 12.2.1 (20241206.2353)
 -->
<!-- Title: include/AABBtree/Tree.hxx Pages: 1 -->
<svg width="202pt" height="139pt"
 viewBox="0.00 0.00 202.00 138.86" xmlns="http://www.w3.org/2000/svg" xmlns:xlink="http://www.w3.org/1999/xlink">
<g id="graph0" class="graph" transform="scale(1 1) rotate(0) translate(4 134.86)">
<title>include/AABBtree/Tree.hxx</title>
<!-- Node1 -->
<g id="Node000001" class="node">
<title>Node1</title>
<g id="a_Node000001"><a xlink:title=" ">
<polygon fill="#999999" stroke="#666666" points="159,-129.75 24.5,-129.75 24.5,-110.5 159,-110.5 159,-129.75"/>
<text text-anchor="middle" x="91.75" y="-116.25" font-family="Helvetica,sans-Serif" font-size="10.00">include/AABBtree/Tree.hxx</text>
</a>
</g>
</g>
<!-- Node1&#45;&gt;Node1 -->
<g id="edge5_Node000001_Node000001" class="edge">
<title>Node1&#45;&gt;Node1</title>
<g id="a_edge5_Node000001_Node000001"><a xlink:title=" ">
<path fill="none" stroke="#63b8ff" d="M136.49,-130.23C158,-131.48 177,-128.11 177,-120.12 177,-113.57 164.22,-110.13 147.75,-109.79"/>
<polygon fill="#63b8ff" stroke="#63b8ff" points="147.93,-106.29 138,-109.99 148.07,-113.29 147.93,-106.29"/>
</a>
</g>
</g>
<!-- Node2 -->
<g id="Node000002" class="node">
<title>Node2</title>
<g id="a_Node000002"><a xlink:title=" ">
<polygon fill="#e0e0e0" stroke="#999999" points="77.5,-74.5 0,-74.5 0,-55.25 77.5,-55.25 77.5,-74.5"/>
<text text-anchor="middle" x="38.75" y="-61" font-family="Helvetica,sans-Serif" font-size="10.00">unordered_set</text>
</a>
</g>
</g>
<!-- Node1&#45;&gt;Node2 -->
<g id="edge1_Node000001_Node000002" class="edge">
<title>Node1&#45;&gt;Node2</title>
<g id="a_edge1_Node000001_Node000002"><a xlink:title=" ">
<path fill="none" stroke="#63b8ff" d="M83,-110.33C75.6,-102.9 64.79,-92.04 55.7,-82.91"/>
<polygon fill="#63b8ff" stroke="#63b8ff" points="58.29,-80.55 48.76,-75.93 53.33,-85.49 58.29,-80.55"/>
</a>
</g>
</g>
<!-- Node3 -->
<g id="Node000003" class="node">
<title>Node3</title>
<g id="a_Node000003"><a xlink:href="_box_8hxx.html" target="_top" xlink:title=" ">
<polygon fill="white" stroke="#666666" points="194,-74.5 95.5,-74.5 95.5,-55.25 194,-55.25 194,-74.5"/>
<text text-anchor="middle" x="144.75" y="-61" font-family="Helvetica,sans-Serif" font-size="10.00">AABBtree/Box.hxx</text>
</a>
</g>
</g>
<!-- Node1&#45;&gt;Node3 -->
<g id="edge2_Node000001_Node000003" class="edge">
<title>Node1&#45;&gt;Node3</title>
<g id="a_edge2_Node000001_Node000003"><a xlink:title=" ">
<path fill="none" stroke="#63b8ff" d="M100.5,-110.33C107.9,-102.9 118.71,-92.04 127.8,-82.91"/>
<polygon fill="#63b8ff" stroke="#63b8ff" points="130.17,-85.49 134.74,-75.93 125.21,-80.55 130.17,-85.49"/>
</a>
</g>
</g>
<!-- Node4 -->
<g id="Node000004" class="node">
<title>Node4</title>
<g id="a_Node000004"><a xlink:href="_ray_8hxx.html" target="_top" xlink:title=" ">
<polygon fill="white" stroke="#666666" points="193.62,-19.25 95.88,-19.25 95.88,0 193.62,0 193.62,-19.25"/>
<text text-anchor="middle" x="144.75" y="-5.75" font-family="Helvetica,sans-Serif" font-size="10.00">AABBtree/Ray.hxx</text>
</a>
</g>
</g>
<!-- Node3&#45;&gt;Node4 -->
<g id="edge3_Node000003_Node000004" class="edge">
<title>Node3&#45;&gt;Node4</title>
<g id="a_edge3_Node000003_Node000004"><a xlink:title=" ">
<path fill="none" stroke="#63b8ff" d="M139.58,-55.08C138.17,-48.49 137.71,-39.21 138.18,-30.82"/>
<polygon fill="#63b8ff" stroke="#63b8ff" points="141.63,-31.46 139.36,-21.11 134.68,-30.62 141.63,-31.46"/>
</a>
</g>
</g>
<!-- Node4&#45;&gt;Node3 -->
<g id="edge4_Node000004_Node000003" class="edge">
<title>Node4&#45;&gt;Node3</title>
<g id="a_edge4_Node000004_Node000003"><a xlink:title=" ">
<path fill="none" stroke="#63b8ff" d="M149.96,-19.61C151.35,-26.25 151.8,-35.55 151.31,-43.92"/>
<polygon fill="#63b8ff" stroke="#63b8ff" points="147.87,-43.22 150.1,-53.58 154.81,-44.09 147.87,-43.22"/>
</a>
</g>
</g>
</g>
</svg>
