<?xml version="1.0" encoding="UTF-8" standalone="no"?>
<!DOCTYPE svg PUBLIC "-//W3C//DTD SVG 1.1//EN"
 "http://www.w3.org/Graphics/SVG/1.1/DTD/svg11.dtd">
<!-- Generated by graphviz version 12.2.1 (20241206.2353)
 -->
<!-- Title: include/AABBtree/Tree.hxx Pages: 1 -->
<svg width="161pt" height="139pt"
 viewBox="0.00 0.00 160.50 138.86" xmlns="http://www.w3.org/2000/svg" xmlns:xlink="http://www.w3.org/1999/xlink">
<g id="graph0" class="graph" transform="scale(1 1) rotate(0) translate(4 134.86)">
<title>include/AABBtree/Tree.hxx</title>
<!-- Node1 -->
<g id="Node000001" class="node">
<title>Node1</title>
<g id="a_Node000001"><a xlink:title=" ">
<polygon fill="#999999" stroke="#666666" points="134.5,-129.75 0,-129.75 0,-110.5 134.5,-110.5 134.5,-129.75"/>
<text text-anchor="middle" x="67.25" y="-116.25" font-family="Helvetica,sans-Serif" font-size="10.00">include/AABBtree/Tree.hxx</text>
</a>
</g>
</g>
<!-- Node1&#45;&gt;Node1 -->
<g id="edge4_Node000001_Node000001" class="edge">
<title>Node1&#45;&gt;Node1</title>
<g id="a_edge4_Node000001_Node000001"><a xlink:title=" ">
<path fill="none" stroke="#63b8ff" d="M111.99,-130.23C133.5,-131.48 152.5,-128.11 152.5,-120.12 152.5,-113.57 139.72,-110.13 123.25,-109.79"/>
<polygon fill="#63b8ff" stroke="#63b8ff" points="123.43,-106.29 113.5,-109.99 123.57,-113.29 123.43,-106.29"/>
</a>
</g>
</g>
<!-- Node2 -->
<g id="Node000002" class="node">
<title>Node2</title>
<g id="a_Node000002"><a xlink:href="_box_8hxx.html" target="_top" xlink:title=" ">
<polygon fill="white" stroke="#666666" points="116.5,-74.5 18,-74.5 18,-55.25 116.5,-55.25 116.5,-74.5"/>
<text text-anchor="middle" x="67.25" y="-61" font-family="Helvetica,sans-Serif" font-size="10.00">AABBtree/Box.hxx</text>
</a>
</g>
</g>
<!-- Node1&#45;&gt;Node2 -->
<g id="edge1_Node000001_Node000002" class="edge">
<title>Node1&#45;&gt;Node2</title>
<g id="a_edge1_Node000001_Node000002"><a xlink:title=" ">
<path fill="none" stroke="#63b8ff" d="M67.25,-110.33C67.25,-103.82 67.25,-94.67 67.25,-86.37"/>
<polygon fill="#63b8ff" stroke="#63b8ff" points="70.75,-86.37 67.25,-76.37 63.75,-86.37 70.75,-86.37"/>
</a>
</g>
</g>
<!-- Node3 -->
<g id="Node000003" class="node">
<title>Node3</title>
<g id="a_Node000003"><a xlink:href="_ray_8hxx.html" target="_top" xlink:title=" ">
<polygon fill="white" stroke="#666666" points="116.12,-19.25 18.38,-19.25 18.38,0 116.12,0 116.12,-19.25"/>
<text text-anchor="middle" x="67.25" y="-5.75" font-family="Helvetica,sans-Serif" font-size="10.00">AABBtree/Ray.hxx</text>
</a>
</g>
</g>
<!-- Node2&#45;&gt;Node3 -->
<g id="edge2_Node000002_Node000003" class="edge">
<title>Node2&#45;&gt;Node3</title>
<g id="a_edge2_Node000002_Node000003"><a xlink:title=" ">
<path fill="none" stroke="#63b8ff" d="M62.08,-55.08C60.67,-48.49 60.21,-39.21 60.68,-30.82"/>
<polygon fill="#63b8ff" stroke="#63b8ff" points="64.13,-31.46 61.86,-21.11 57.18,-30.62 64.13,-31.46"/>
</a>
</g>
</g>
<!-- Node3&#45;&gt;Node2 -->
<g id="edge3_Node000003_Node000002" class="edge">
<title>Node3&#45;&gt;Node2</title>
<g id="a_edge3_Node000003_Node000002"><a xlink:title=" ">
<path fill="none" stroke="#63b8ff" d="M72.46,-19.61C73.85,-26.25 74.3,-35.55 73.81,-43.92"/>
<polygon fill="#63b8ff" stroke="#63b8ff" points="70.37,-43.22 72.6,-53.58 77.31,-44.09 70.37,-43.22"/>
</a>
</g>
</g>
</g>
</svg>
