<?xml version="1.0" encoding="UTF-8" standalone="no"?>
<!DOCTYPE svg PUBLIC "-//W3C//DTD SVG 1.1//EN"
 "http://www.w3.org/Graphics/SVG/1.1/DTD/svg11.dtd">
<!-- Generated by graphviz version 12.2.1 (20241206.2353)
 -->
<!-- Title: include/AABBtree/Tree.hxx Pages: 1 -->
<svg width="161pt" height="84pt"
 viewBox="0.00 0.00 160.50 83.61" xmlns="http://www.w3.org/2000/svg" xmlns:xlink="http://www.w3.org/1999/xlink">
<g id="graph0" class="graph" transform="scale(1 1) rotate(0) translate(4 79.61)">
<title>include/AABBtree/Tree.hxx</title>
<!-- Node1 -->
<g id="Node000001" class="node">
<title>Node1</title>
<g id="a_Node000001"><a xlink:title=" ">
<polygon fill="#999999" stroke="#666666" points="134.5,-74.5 0,-74.5 0,-55.25 134.5,-55.25 134.5,-74.5"/>
<text text-anchor="middle" x="67.25" y="-61" font-family="Helvetica,sans-Serif" font-size="10.00">include/AABBtree/Tree.hxx</text>
</a>
</g>
</g>
<!-- Node1&#45;&gt;Node1 -->
<g id="edge2_Node000001_Node000001" class="edge">
<title>Node1&#45;&gt;Node1</title>
<g id="a_edge2_Node000001_Node000001"><a xlink:title=" ">
<path fill="none" stroke="#63b8ff" d="M111.99,-74.98C133.5,-76.23 152.5,-72.86 152.5,-64.88 152.5,-58.32 139.72,-54.88 123.25,-54.54"/>
<polygon fill="#63b8ff" stroke="#63b8ff" points="123.43,-51.04 113.5,-54.74 123.57,-58.04 123.43,-51.04"/>
</a>
</g>
</g>
<!-- Node2 -->
<g id="Node000002" class="node">
<title>Node2</title>
<g id="a_Node000002"><a xlink:href="_box_8hxx.html" target="_top" xlink:title=" ">
<polygon fill="white" stroke="#666666" points="116.5,-19.25 18,-19.25 18,0 116.5,0 116.5,-19.25"/>
<text text-anchor="middle" x="67.25" y="-5.75" font-family="Helvetica,sans-Serif" font-size="10.00">AABBtree/Box.hxx</text>
</a>
</g>
</g>
<!-- Node1&#45;&gt;Node2 -->
<g id="edge1_Node000001_Node000002" class="edge">
<title>Node1&#45;&gt;Node2</title>
<g id="a_edge1_Node000001_Node000002"><a xlink:title=" ">
<path fill="none" stroke="#63b8ff" d="M67.25,-55.08C67.25,-48.57 67.25,-39.42 67.25,-31.12"/>
<polygon fill="#63b8ff" stroke="#63b8ff" points="70.75,-31.12 67.25,-21.12 63.75,-31.12 70.75,-31.12"/>
</a>
</g>
</g>
</g>
</svg>
