<?xml version="1.0" encoding="UTF-8" standalone="no"?>
<!DOCTYPE svg PUBLIC "-//W3C//DTD SVG 1.1//EN"
 "http://www.w3.org/Graphics/SVG/1.1/DTD/svg11.dtd">
<!-- Generated by graphviz version 12.2.1 (20241206.2353)
 -->
<!-- Title: include/AABBtree/Tree.hxx Pages: 1 -->
<svg width="386pt" height="138pt"
 viewBox="0.00 0.00 386.00 137.75" xmlns="http://www.w3.org/2000/svg" xmlns:xlink="http://www.w3.org/1999/xlink">
<g id="graph0" class="graph" transform="scale(1 1) rotate(0) translate(4 133.75)">
<title>include/AABBtree/Tree.hxx</title>
<!-- Node1 -->
<g id="Node000001" class="node">
<title>Node1</title>
<g id="a_Node000001"><a xlink:title=" ">
<polygon fill="#999999" stroke="#666666" points="179.62,-129.75 45.12,-129.75 45.12,-110.5 179.62,-110.5 179.62,-129.75"/>
<text text-anchor="middle" x="112.38" y="-116.25" font-family="Helvetica,sans-Serif" font-size="10.00">include/AABBtree/Tree.hxx</text>
</a>
</g>
</g>
<!-- Node2 -->
<g id="Node000002" class="node">
<title>Node2</title>
<g id="a_Node000002"><a xlink:href="_a_a_b_btree_8hh.html" target="_top" xlink:title=" ">
<polygon fill="white" stroke="#666666" points="106.75,-19.25 0,-19.25 0,0 106.75,0 106.75,-19.25"/>
<text text-anchor="middle" x="53.38" y="-5.75" font-family="Helvetica,sans-Serif" font-size="10.00">include/AABBtree.hh</text>
</a>
</g>
</g>
<!-- Node1&#45;&gt;Node2 -->
<g id="edge1_Node000001_Node000002" class="edge">
<title>Node1&#45;&gt;Node2</title>
<g id="a_edge1_Node000001_Node000002"><a xlink:title=" ">
<path fill="none" stroke="#63b8ff" d="M56.33,-106.13C40.01,-99.46 24,-89.46 14.38,-74.5 1.93,-55.16 25.34,-32.03 40.97,-19.59"/>
<polygon fill="#63b8ff" stroke="#63b8ff" points="55.02,-109.38 65.61,-109.53 57.42,-102.8 55.02,-109.38"/>
</a>
</g>
</g>
<!-- Node3 -->
<g id="Node000003" class="node">
<title>Node3</title>
<g id="a_Node000003"><a xlink:href="_non_recursive_8hxx.html" target="_top" xlink:title=" ">
<polygon fill="white" stroke="#666666" points="201,-74.5 23.75,-74.5 23.75,-55.25 201,-55.25 201,-74.5"/>
<text text-anchor="middle" x="112.38" y="-61" font-family="Helvetica,sans-Serif" font-size="10.00">include/AABBtree/NonRecursive.hxx</text>
</a>
</g>
</g>
<!-- Node1&#45;&gt;Node3 -->
<g id="edge2_Node000001_Node000003" class="edge">
<title>Node1&#45;&gt;Node3</title>
<g id="a_edge2_Node000001_Node000003"><a xlink:title=" ">
<path fill="none" stroke="#63b8ff" d="M112.38,-98.88C112.38,-90.59 112.38,-81.42 112.38,-74.86"/>
<polygon fill="#63b8ff" stroke="#63b8ff" points="108.88,-98.82 112.38,-108.82 115.88,-98.82 108.88,-98.82"/>
</a>
</g>
</g>
<!-- Node4 -->
<g id="Node000004" class="node">
<title>Node4</title>
<g id="a_Node000004"><a xlink:href="_recursive_8hxx.html" target="_top" xlink:title=" ">
<polygon fill="white" stroke="#666666" points="378,-74.5 218.75,-74.5 218.75,-55.25 378,-55.25 378,-74.5"/>
<text text-anchor="middle" x="298.38" y="-61" font-family="Helvetica,sans-Serif" font-size="10.00">include/AABBtree/Recursive.hxx</text>
</a>
</g>
</g>
<!-- Node1&#45;&gt;Node4 -->
<g id="edge4_Node000001_Node000004" class="edge">
<title>Node1&#45;&gt;Node4</title>
<g id="a_edge4_Node000001_Node000004"><a xlink:title=" ">
<path fill="none" stroke="#63b8ff" d="M154.93,-106.94C188.95,-97.2 235.88,-83.77 266.67,-74.95"/>
<polygon fill="#63b8ff" stroke="#63b8ff" points="154.03,-103.56 145.38,-109.68 155.96,-110.29 154.03,-103.56"/>
</a>
</g>
</g>
<!-- Node3&#45;&gt;Node2 -->
<g id="edge3_Node000003_Node000002" class="edge">
<title>Node3&#45;&gt;Node2</title>
<g id="a_edge3_Node000003_Node000002"><a xlink:title=" ">
<path fill="none" stroke="#63b8ff" d="M94.11,-47.39C83.92,-38.19 71.63,-27.1 63.24,-19.52"/>
<polygon fill="#63b8ff" stroke="#63b8ff" points="91.47,-49.73 101.24,-53.83 96.16,-44.53 91.47,-49.73"/>
</a>
</g>
</g>
</g>
</svg>
